<?xml version="1.0" encoding="UTF-8" standalone="no"?>
<!-- Created with Inkscape (http://www.inkscape.org/) -->

<svg
   version="1.1"
   id="svg1"
   width="960"
   height="960"
   viewBox="0 0 960 960"
   sodipodi:docname="logo.svg"
   inkscape:version="1.4.2 (ebf0e940d0, 2025-05-08)"
   xml:space="preserve"
   xmlns:inkscape="http://www.inkscape.org/namespaces/inkscape"
   xmlns:sodipodi="http://sodipodi.sourceforge.net/DTD/sodipodi-0.dtd"
   xmlns="http://www.w3.org/2000/svg"
   xmlns:svg="http://www.w3.org/2000/svg"
   xmlns:rdf="http://www.w3.org/1999/02/22-rdf-syntax-ns#"
   xmlns:cc="http://creativecommons.org/ns#"
   xmlns:dc="http://purl.org/dc/elements/1.1/"><title
     id="title23">Fekal</title><defs
     id="defs1" /><sodipodi:namedview
     id="namedview1"
     pagecolor="#ffffff"
     bordercolor="#000000"
     borderopacity="0.25"
     inkscape:showpageshadow="2"
     inkscape:pageopacity="0.0"
     inkscape:pagecheckerboard="0"
     inkscape:deskcolor="#d1d1d1"
     inkscape:zoom="0.1767767"
     inkscape:cx="1156.8267"
     inkscape:cy="633.56766"
     inkscape:window-width="1890"
     inkscape:window-height="1002"
     inkscape:window-x="12"
     inkscape:window-y="63"
     inkscape:window-maximized="1"
     inkscape:current-layer="svg1" /><rect
     style="opacity:1;fill:#482d1e;fill-opacity:1;fill-rule:evenodd;stroke:none;stroke-width:10.7679;stroke-linecap:square;stroke-linejoin:round;stroke-miterlimit:8.2;paint-order:markers stroke fill"
     id="rect6"
     width="960"
     height="960"
     x="960"
     y="0" /><rect
     style="opacity:1;fill:#ffffff;fill-opacity:1;fill-rule:evenodd;stroke:none;stroke-width:10.7679;stroke-linecap:square;stroke-linejoin:round;stroke-miterlimit:8.2;paint-order:markers stroke fill"
     id="rect5"
     width="960"
     height="960"
     x="0"
     y="0"
     inkscape:export-filename="Fekal-logo.pdf"
     inkscape:export-xdpi="96"
     inkscape:export-ydpi="96" /><rect
     style="fill:#000000;fill-opacity:1;fill-rule:evenodd;stroke:none;stroke-width:10.7679;stroke-linecap:square;stroke-linejoin:round;stroke-miterlimit:8.2;paint-order:markers stroke fill"
     id="rect6-3"
     width="960"
     height="960"
     x="0"
     y="960" /><rect
     style="opacity:1;fill:#ffffff;fill-opacity:1;fill-rule:evenodd;stroke:none;stroke-width:10.7679;stroke-linecap:square;stroke-linejoin:round;stroke-miterlimit:8.2;paint-order:markers stroke fill"
     id="rect10"
     width="960"
     height="960"
     x="960"
     y="960" /><metadata
     id="metadata23"><rdf:RDF><cc:Work
         rdf:about=""><cc:license
           rdf:resource="http://creativecommons.org/licenses/by/4.0/" /><dc:title>Fekal</dc:title><dc:creator><cc:Agent><dc:title>@redrat.studio</dc:title></cc:Agent></dc:creator><dc:date>2025-05-09</dc:date><dc:description>https://www.instagram.com/redrat.drawing/</dc:description></cc:Work><cc:License
         rdf:about="http://creativecommons.org/licenses/by/4.0/"><cc:permits
           rdf:resource="http://creativecommons.org/ns#Reproduction" /><cc:permits
           rdf:resource="http://creativecommons.org/ns#Distribution" /><cc:requires
           rdf:resource="http://creativecommons.org/ns#Notice" /><cc:requires
           rdf:resource="http://creativecommons.org/ns#Attribution" /><cc:permits
           rdf:resource="http://creativecommons.org/ns#DerivativeWorks" /></cc:License></rdf:RDF></metadata><g
     id="g1"><path
       id="path14"
       style="baseline-shift:baseline;display:inline;overflow:visible;vector-effect:none;fill:#482d1e;fill-opacity:1;fill-rule:evenodd;stroke-width:0.647397;stroke-linecap:square;stroke-linejoin:round;stroke-miterlimit:8.2;paint-order:markers stroke fill;enable-background:accumulate;stop-color:#000000"
       d="m 174.40039,339.07812 c -29.48264,2.5e-4 -51.39622,20.26902 -59.6582,44.27344 -5.8671,17.04632 -4.88172,36.4537 4.92383,51.96289 -14.66979,10.96651 -23.92969,25.19476 -23.92969,41.13867 0,3.46331 0.437143,6.84541 1.271485,10.13086 -19.753679,13.9005 -32.189453,32.08809 -32.189454,52.46094 0,23.56808 16.642112,44.21505 42.003909,58.67969 25.36178,14.46465 59.85765,23.19724 97.89844,23.19727 38.0408,0 72.53665,-8.73262 97.89843,-23.19727 25.36179,-14.46464 42.00196,-35.11161 42.00196,-58.67969 0,-20.37328 -12.43531,-38.56228 -32.18946,-52.46289 0.83432,-3.28551 1.27149,-6.66761 1.27149,-10.13086 0,-17.25837 -10.84749,-32.50431 -27.66406,-43.78125 0.77362,-3.00156 1.04719,-6.08112 0.76367,-9.17773 -0.79002,-8.62865 -5.83502,-16.89697 -14.55078,-23.75977 -10.18689,-8.02116 -23.43038,-11.27288 -36.63086,-13.33398 -13.20047,-2.0611 -26.54159,-2.89553 -36.82227,-5.08399 -10.0093,-2.13071 -12.88388,-6.41492 -13.81055,-12.4707 -0.92666,-6.05578 1.29601,-14.36882 4.91993,-21.57422 a 4.8526824,4.8526824 0 0 0 -3.33985,-6.92969 c -3.99963,-0.83863 -8.07894,-1.26183 -12.16797,-1.26172 z m 107.67188,102.62891 h 0.002 c -0.59808,0.9483 -1.24891,1.88029 -1.94726,2.79297 0.69811,-0.91291 1.34733,-1.84477 1.94531,-2.79297 z m -156.08203,1.69141 c 1.18626,1.25528 2.46077,2.46109 3.79883,3.6289 -1.33824,-1.16804 -2.6125,-2.37348 -3.79883,-3.6289 z m 5.03515,4.68164 c 1.5717,1.29323 3.2059,2.54842 4.97852,3.71289 -1.7726,-1.16447 -3.40687,-2.41955 -4.97852,-3.71289 z m 10.45313,7.56054 c 0.38531,0.24528 0.782,0.48288 1.17578,0.72266 -0.39534,-0.23924 -0.78904,-0.47781 -1.17578,-0.72266 z m 5.0293,2.83985 c 1.8808,0.99861 3.86261,1.92147 5.89453,2.80664 -2.03899,-0.88116 -4.00671,-1.81197 -5.89453,-2.80664 z m 35.44531,10.90039 c 1.29199,0.1915 2.58246,0.38058 3.89453,0.53906 -0.58244,-0.0709 -1.2121,-0.0422 -1.79102,-0.11914 -0.73305,-0.0974 -1.40576,-0.27651 -2.10351,-0.41992 z m 45.78125,0.16602 c -0.43016,0.0616 -0.94716,0.043 -1.38086,0.10156 0.0222,-0.003 0.0442,-0.007 0.0664,-0.01 0.42521,-0.0426 0.90633,-0.0334 1.31446,-0.0918 z m 82.30078,23.79101 c -0.37429,0.85666 -0.71491,1.72341 -1.14063,2.56445 -1.57918,3.09602 -3.60918,6.04117 -5.87304,8.89454 2.86658,-3.62905 5.26057,-7.44796 7.01367,-11.45899 z m -210.626955,0.008 c 1.757665,4.01931 4.157575,7.8467 7.033205,11.48242 -2.26018,-2.8447 -4.28769,-5.78091 -5.86719,-8.86718 -0.43847,-0.8568 -0.783977,-1.7415 -1.166015,-2.61524 z M 298.1836,510.25195 c -1.87061,1.87544 -3.95404,3.63855 -6.10157,5.3711 2.14212,-1.73395 4.23729,-3.49402 6.10157,-5.3711 z m -186.91602,0.01 c 1.87287,1.88494 3.97589,3.65595 6.12891,5.39648 -2.1591,-1.73948 -4.24918,-3.51278 -6.12891,-5.39648 z m 178.8418,7.04101 c -2.90702,2.1972 -6.00339,4.28039 -9.3125,6.20704 3.30934,-1.92678 6.4111,-4.00801 9.3125,-6.20704 z m -170.77344,0.004 c 2.90117,2.19863 6.00151,4.27866 9.31055,6.20508 -3.30867,-1.92621 -6.40381,-4.00855 -9.31055,-6.20508 z" /><path
       id="path3"
       style="baseline-shift:baseline;display:inline;overflow:visible;vector-effect:none;fill:#63452c;fill-rule:evenodd;stroke-width:0.647397;stroke-linecap:square;stroke-linejoin:round;stroke-miterlimit:8.2;paint-order:markers stroke fill;enable-background:accumulate;stop-color:#000000"
       d="m 174.40235,343.93164 c -54.53538,4.3e-4 -80.475893,74.68313 -35.53907,103.93359 14.24947,11.48878 39.11711,18.45906 65.85743,18.45899 66.60083,-1e-5 96.38236,-37.70166 64.53125,-62.78125 -18.09124,-14.24505 -49.76828,-12.86425 -71.46289,-17.48242 -22.82645,-4.85912 -20.0287,-25.43839 -12.2168,-40.97071 -3.67162,-0.76986 -7.41535,-1.1583 -11.16992,-1.1582 z m 109.97656,93.47656 c -1.61607,3.63104 -3.96645,7.08857 -6.93555,10.25196 -11.28569,12.0242 -31.79739,20.25813 -58.72656,22.52539 2.95779,-0.2614 6.21642,-0.23767 9.01758,-0.63867 -7.0724,1.01294 -14.62044,1.61591 -22.74414,1.6289 -0.089,1.3e-4 -0.18045,0 -0.26953,0 -7.06689,2e-5 -13.98471,-0.48764 -20.66407,-1.375 -2.22848,-0.296 -4.22941,-0.8856 -6.39453,-1.27734 -4.46324,-0.80731 -8.95189,-1.57495 -13.08008,-2.7793 h -0.002 c -0.0714,-0.0208 -0.13768,-0.0474 -0.20898,-0.0684 -0.0869,-0.029 -0.17411,-0.0574 -0.26368,-0.084 -11.00436,-3.26299 -20.68862,-7.87207 -28.10351,-13.79883 -5.46272,-3.58858 -9.96073,-7.82125 -13.55859,-12.5 a 104.13198,60.622314 0 0 0 -21.85743,37.16015 104.13198,60.622314 0 0 0 104.13282,60.6211 104.13198,60.622314 0 0 0 104.13281,-60.6211 104.13198,60.622314 0 0 0 -24.47461,-39.04492 z m -148.375,14.38477 c 0.0703,0.0462 0.14034,0.0927 0.21094,0.13867 l -0.39649,-0.28906 c 0.0622,0.0501 0.12306,0.10044 0.18555,0.15039 z m 174.88281,39.64648 c -4.86859,12.68648 -15.73158,23.71107 -30.09375,32.07227 -19.77147,11.51031 -46.55379,18.41406 -76.07226,18.41406 -29.51846,0 -56.30275,-6.90375 -76.07422,-18.41406 -14.36223,-8.36123 -25.22519,-19.38434 -30.093753,-32.07031 a 135.05028,77.023516 0 0 0 -28.882813,47.60547 135.05028,77.023516 0 0 0 135.050786,77.02343 135.05028,77.023516 0 0 0 135.05078,-77.02343 135.05028,77.023516 0 0 0 -28.88477,-47.60743 z" /><path
       id="text1"
       style="font-weight:800;font-size:213.292px;line-height:2.5;font-family:Rawline;-inkscape-font-specification:'Rawline Ultra-Bold';letter-spacing:-3.28824px;word-spacing:-0.0888714px;display:inline;fill:#482d1e;fill-rule:evenodd;stroke-width:11.962;stroke-linecap:square;stroke-linejoin:round;stroke-miterlimit:8.2;paint-order:markers stroke fill"
       d="m 596.81641,373.68164 v 155.69922 h 34.05664 V 496.7832 l 11.97656,-12.18554 29.26563,44.7832 h 36.24218 l -43.74023,-63.73828 40.30469,-48.21875 h -36.03516 l -38.01367,46.24023 v -89.98242 z m 237.64844,0 v 127.78711 c 0,9.58147 2.63731,16.94218 7.91406,22.08008 5.27675,5.13789 12.77575,7.70703 22.49609,7.70703 4.79074,0 9.9631,-0.59116 15.51758,-1.77148 5.62391,-1.1109 10.55377,-2.63797 14.78906,-4.58204 l -4.47851,-25.61914 c -4.44359,2.15236 -8.57388,3.22852 -12.39258,3.22852 -6.52651,0 -9.79102,-4.34066 -9.79102,-13.01953 V 373.68164 Z m -472.06641,4.26953 v 151.42969 h 34.99414 v -59.67578 h 55.92578 v -28.43164 h -55.92578 v -32.59766 h 67.79883 v -30.72461 z m 162.51367,37.28516 c -9.30375,0 -17.80878,1.59719 -25.51562,4.79101 -7.63741,3.1244 -13.95605,7.39298 -18.95508,12.8086 -4.99903,5.41562 -8.88682,11.73426 -11.66406,18.95508 -2.70781,7.15139 -4.0625,14.7546 -4.0625,22.80859 0,7.56798 1.38877,14.78844 4.16601,21.66211 2.77724,6.87367 6.66503,12.91377 11.66406,18.12109 5.06847,5.20733 11.42119,9.37366 19.0586,12.49805 7.70684,3.05496 16.1437,4.58203 25.30859,4.58203 12.56701,0 23.53697,-2.70743 32.91016,-8.12305 9.37319,-5.41562 16.31511,-12.63608 20.82812,-21.66211 l -29.05664,-8.12304 c -1.59691,3.95756 -4.65105,7.18602 -9.16406,9.68554 -4.51302,2.49952 -9.33867,3.74805 -14.47656,3.74805 -6.52652,0 -12.21991,-2.0481 -17.08008,-6.14453 -4.79074,-4.09643 -7.43,-9.71971 -7.91602,-16.87109 h 82.79688 c 0.55545,-3.74928 0.83398,-7.39457 0.83398,-10.93555 0,-7.70684 -1.35468,-14.99742 -4.0625,-21.87109 -2.63837,-6.9431 -6.42196,-13.08741 -11.35156,-18.4336 -4.9296,-5.34618 -11.21219,-9.58068 -18.84961,-12.70508 -7.6374,-3.19382 -16.10835,-4.79101 -25.41211,-4.79101 z m 235.35547,0 c -17.49661,0 -33.70905,4.85974 -48.63672,14.58008 l 10.31055,21.66211 c 6.31822,-4.23529 12.18595,-7.32351 17.60156,-9.26758 5.48506,-2.0135 11.24662,-3.02149 17.28711,-3.02149 14.99709,0 22.4961,6.31864 22.4961,18.95508 v 4.89453 c -6.94311,-2.98553 -15.27381,-4.47851 -24.99415,-4.47851 -14.23335,0 -25.82856,3.47291 -34.78515,10.41601 -8.9566,6.87367 -13.43555,15.82961 -13.43555,26.86914 0,10.13692 3.71542,18.60787 11.14453,25.41211 7.42912,6.80424 16.73177,10.20508 27.91016,10.20508 7.56798,0 14.78844,-1.66536 21.66211,-4.99805 6.9431,-3.40211 12.88094,-8.26185 17.81055,-14.58007 l 0.62304,4.89453 c 1.80521,9.51204 8.78317,14.26758 20.9336,14.26758 4.37414,0 9.1998,-0.55513 14.47656,-1.66602 v -28.32813 c -2.70782,-0.20829 -4.61567,-1.00591 -5.72656,-2.39453 -1.04147,-1.45804 -1.5625,-3.88889 -1.5625,-7.29101 v -29.16016 c 0,-15.13595 -4.65328,-26.73116 -13.95704,-34.78515 -9.23432,-8.12343 -22.28647,-12.18555 -39.1582,-12.18555 z m -235.77344,24.57812 c 6.52652,0 12.01345,2.11823 16.45704,6.35352 4.51301,4.23529 7.11623,9.85857 7.81054,16.87109 H 500.125 c 0.69431,-7.01252 3.26345,-12.6358 7.70703,-16.87109 4.51302,-4.23529 10.06617,-6.35352 16.66211,-6.35352 z m 235.56446,37.91016 c 5.90163,0 12.32447,1.21445 19.26758,3.64453 v 9.99805 c 0,2.9161 -1.80561,5.83194 -5.41602,8.74804 -2.36065,2.08294 -5.24242,3.75025 -8.64453,5 -3.3327,1.24976 -6.69945,1.87305 -10.10156,1.87305 -5.06847,0 -9.16467,-1.35274 -12.28907,-4.06055 -3.05496,-2.77724 -4.58203,-6.1099 -4.58203,-9.99804 0,-4.44358 2.04811,-8.08888 6.14453,-10.93555 4.09643,-2.84667 9.30288,-4.26953 15.6211,-4.26953 z"
       inkscape:label="txt"
       sodipodi:nodetypes="ccccccccccccccssscccsscccccccccccccscscssccssccsscccscscsscccsscscssscccscccsscssccccsscsccscsss" /><path
       style="font-weight:bold;font-size:38.0071px;font-family:Cinzel;-inkscape-font-specification:'Cinzel Bold';text-align:center;text-anchor:middle;fill:#482d1e;stroke-width:3.16725"
       d="m 362.43636,570.75781 q 0,-2.47046 1.10221,-4.21879 h 0.30405 q -0.038,0.26605 -0.038,0.49409 0,2.31843 1.6343,4.06676 1.67232,1.74833 4.63687,1.74833 2.1284,0 3.26861,-0.98819 1.17822,-0.98818 1.17822,-2.20441 0,-1.21623 -0.68413,-1.93836 -0.64612,-0.76014 -2.1664,-1.74833 l -5.39701,-3.42064 q -3.42064,-2.12839 -3.42064,-5.47302 0,-0.34206 0.038,-0.72213 0.22804,-2.69851 2.09039,-4.21879 1.86235,-1.55829 4.37081,-1.55829 2.54648,0 5.35901,0.34206 h 2.05238 l -0.5321,5.01694 h -0.34206 q 0,-1.78633 -1.25424,-2.81253 -1.21623,-1.02619 -3.26861,-1.02619 -2.01438,0 -3.1926,0.87417 -1.17822,0.83615 -1.17822,2.24241 0,1.14022 1.14022,1.97637 0.45608,0.34207 1.33025,0.87417 l 6.04312,3.72469 q 3.11659,1.90036 3.11659,5.24498 0,3.53466 -2.50847,5.43502 -2.47046,1.90035 -6.4232,1.90035 -2.43246,0 -4.2948,-0.5701 -1.86235,-0.57011 -2.73652,-1.44427 -0.22804,-0.68413 -0.22804,-1.5963 z m 36.75285,3.11658 h -17.90135 v -0.38007 h 0.45609 q 0.87416,0 1.44427,-0.57011 0.60811,-0.5701 0.64612,-1.40626 v -18.09138 q -0.038,-0.83616 -0.64612,-1.40626 -0.57011,-0.57011 -1.44427,-0.57011 h -0.45609 v -0.38007 h 13.3785 q 1.02619,0 2.24242,-0.19004 1.21623,-0.19003 1.71032,-0.38007 v 6.04313 h -0.38007 v -0.34206 q 0,-1.67231 -0.91217,-2.62249 -0.91217,-0.95018 -2.54648,-0.98819 h -5.47302 v 9.23573 h 4.33281 q 1.29224,-0.038 2.09039,-0.87416 0.79815,-0.83616 0.79815,-2.1284 v -0.26605 h 0.38007 v 8.0575 h -0.38007 v -0.26605 q 0,-1.78633 -1.33025,-2.58448 -0.68413,-0.41808 -1.52028,-0.41808 h -4.37082 v 9.00769 h 4.56085 q 2.35644,-0.038 3.99075,-1.44427 1.67231,-1.44427 2.43245,-4.02876 h 0.34207 z m 17.63524,0.49409 q -6.38519,-0.038 -10.03387,-3.15459 -3.64868,-3.15459 -3.64868,-8.74163 0,-5.58704 3.61067,-8.74163 3.64868,-3.15459 10.07188,-3.15459 5.01694,0 8.5516,1.74832 v 6.04313 H 425.11 q -0.95018,-3.38263 -2.92655,-4.8269 -1.97636,-1.44427 -4.97893,-1.44427 -4.02875,0 -6.15715,2.77452 -2.12839,2.73651 -2.12839,7.52541 0,4.75088 2.09039,7.56341 2.1664,2.88854 5.8911,2.88854 2.6985,0 4.44683,-0.83616 1.74833,-0.83615 2.77452,-2.6605 1.02619,-1.86234 1.52028,-5.01693 h 0.26605 l 0.45609,5.73907 q -1.17822,1.93836 -3.61068,3.11658 -2.39445,1.17822 -5.92911,1.17822 z m 26.52896,0 q -6.3852,-0.038 -10.03388,-3.15459 -3.64868,-3.15459 -3.64868,-8.74163 0,-5.58704 3.61068,-8.74163 3.64868,-3.15459 10.07188,-3.15459 5.01693,0 8.55159,1.74832 v 6.04313 h -0.26605 q -0.95017,-3.38263 -2.92654,-4.8269 -1.97637,-1.44427 -4.97893,-1.44427 -4.02875,0 -6.15715,2.77452 -2.1284,2.73651 -2.1284,7.52541 0,4.75088 2.09039,7.56341 2.16641,2.88854 5.8911,2.88854 2.69851,0 4.44683,-0.83616 1.74833,-0.83615 2.77452,-2.6605 1.02619,-1.86234 1.52028,-5.01693 h 0.26605 l 0.45609,5.73907 q -1.17822,1.93836 -3.61068,3.11658 -2.39444,1.17822 -5.9291,1.17822 z m 12.8844,-11.89622 q 0,-5.47302 3.64868,-8.66562 3.68669,-3.2306 9.76783,-3.2306 6.11914,0 9.80583,3.2306 3.68669,3.1926 3.68669,8.66562 0,5.47302 -3.68669,8.70363 -3.68669,3.19259 -9.76782,3.19259 -6.08114,0 -9.76783,-3.19259 -3.68669,-3.23061 -3.68669,-8.70363 z m 5.81509,0 q 0,4.78889 2.05238,7.60142 2.09039,2.77452 5.54904,2.77452 3.49665,0 5.54903,-2.77452 2.0904,-2.81253 2.0904,-7.60142 0,-4.78889 -2.0904,-7.56341 -2.05238,-2.81253 -5.54903,-2.81253 -3.45865,0 -5.54904,2.81253 -2.05238,2.77452 -2.05238,7.56341 z m 54.80624,11.02206 h 0.5321 v 0.38007 h -10.56598 v -0.38007 h 0.5321 q 0.72214,0 1.02619,-0.49409 0.34207,-0.4941 0.26605,-1.0262 l -1.48227,-10.87003 -6.04313,9.6158 q -1.36826,2.16641 -1.36826,3.87672 h -0.34206 l -8.77964,-13.30248 -1.29224,10.67999 q -0.076,0.5321 0.26605,1.0262 0.34206,0.49409 1.02619,0.49409 h 0.5321 v 0.38007 h -7.22135 v -0.38007 h 0.5321 q 0.95018,0 1.6343,-0.5321 0.72214,-0.57011 0.83616,-1.52028 l 2.96455,-20.8659 h 0.30406 l 10.75601,16.077 10.07188,-16.077 h 0.34206 l 3.04057,21.05593 q 0.19004,0.87416 0.87417,1.36826 0.68412,0.49409 1.55829,0.49409 z m 20.63789,-12.20028 q -1.90036,3.30662 -5.96712,3.30662 -2.01437,0 -3.99074,-1.33025 v -0.30406 q 3.80071,0 4.86491,-3.87672 0.22804,-0.87417 0.22804,-1.40626 0,-2.62249 -1.25424,-3.87673 -1.25423,-1.25423 -3.34462,-1.25423 h -1.71032 v 18.92753 q 0.038,1.21623 1.02619,1.74833 0.45609,0.26605 1.02619,0.26605 h 0.45609 v 0.38007 h -10.48996 v -0.38007 h 0.45609 q 0.83615,0 1.40626,-0.57011 0.60811,-0.5701 0.60811,-1.40626 v -18.05337 q 0,-0.87417 -0.60811,-1.44427 -0.57011,-0.57011 -1.44427,-0.57011 h -0.45609 v -0.38007 h 11.2501 q 4.37082,0 6.53723,1.74833 2.31843,1.78633 2.31843,4.90291 0,1.97637 -0.91217,3.57267 z m 31.73588,0 q -1.90035,3.30662 -5.96711,3.30662 -2.01438,0 -3.99075,-1.33025 v -0.30406 q 3.80071,0 4.86491,-3.87672 0.22804,-0.87417 0.22804,-1.40626 0,-2.62249 -1.25423,-3.87673 -1.25423,-1.25423 -3.34462,-1.25423 h -1.71032 v 18.92753 q 0.038,1.21623 1.02619,1.74833 0.45608,0.26605 1.02619,0.26605 h 0.45608 v 0.38007 h -10.48995 v -0.38007 h 0.45608 q 0.83616,0 1.40626,-0.57011 0.60812,-0.5701 0.60812,-1.40626 v -18.05337 q 0,-0.87417 -0.60812,-1.44427 -0.5701,-0.57011 -1.44427,-0.57011 h -0.45608 v -0.38007 h 11.2501 q 4.37082,0 6.53722,1.74833 2.31843,1.78633 2.31843,4.90291 0,1.97637 -0.91217,3.57267 z m 3.61065,1.17822 q 0,-5.47302 3.64868,-8.66562 3.68669,-3.2306 9.76782,-3.2306 6.11914,0 9.80583,3.2306 3.68669,3.1926 3.68669,8.66562 0,5.47302 -3.68669,8.70363 -3.68669,3.19259 -9.76782,3.19259 -6.08114,0 -9.76783,-3.19259 -3.68668,-3.23061 -3.68668,-8.70363 z m 5.81508,0 q 0,4.78889 2.05239,7.60142 2.09039,2.77452 5.54903,2.77452 3.49665,0 5.54904,-2.77452 2.09039,-2.81253 2.09039,-7.60142 0,-4.78889 -2.09039,-7.56341 -2.05239,-2.81253 -5.54904,-2.81253 -3.45864,0 -5.54903,2.81253 -2.05239,2.77452 -2.05239,7.56341 z m 23.22238,11.40213 v -0.38007 h 0.45608 q 0.87417,0 1.44427,-0.57011 0.60812,-0.5701 0.60812,-1.40626 v -18.05337 q 0,-0.83616 -0.60812,-1.40627 -0.60811,-0.60811 -1.44427,-0.60811 h -0.45608 v -0.38007 h 10.56597 v 0.38007 h -0.45608 q -0.87417,0 -1.48228,0.57011 -0.60811,0.5701 -0.60811,1.44427 v 18.88953 h 4.56085 q 2.35644,-0.038 3.99074,-1.44427 1.63431,-1.44427 2.39445,-4.02876 h 0.41808 l -1.48228,6.99331 z m 20.48582,-0.38007 h 0.45609 q 0.91217,0 1.55829,-0.57011 0.64612,-0.60811 0.64612,-1.44427 v -18.01536 q 0,-0.83616 -0.64612,-1.40627 -0.64612,-0.60811 -1.55829,-0.60811 h -0.45609 v -0.38007 h 10.79402 v 0.38007 h -0.45609 q -0.87416,0 -1.52028,0.57011 -0.64612,0.5701 -0.68413,1.40626 v 18.05337 q 0.038,0.87417 0.68413,1.44427 0.64612,0.57011 1.52028,0.57011 h 0.45609 v 0.38007 h -10.79402 z m 26.71894,0.87416 q -6.3852,-0.038 -10.03388,-3.15459 -3.64868,-3.15459 -3.64868,-8.74163 0,-5.58704 3.61067,-8.74163 3.64869,-3.15459 10.07189,-3.15459 5.01693,0 8.55159,1.74832 v 6.04313 h -0.26605 q -0.95017,-3.38263 -2.92654,-4.8269 -1.97637,-1.44427 -4.97893,-1.44427 -4.02876,0 -6.15715,2.77452 -2.1284,2.73651 -2.1284,7.52541 0,4.75088 2.09039,7.56341 2.1664,2.88854 5.8911,2.88854 2.6985,0 4.44683,-0.83616 1.74833,-0.83615 2.77452,-2.6605 1.02619,-1.86234 1.52028,-5.01693 h 0.26605 l 0.45609,5.73907 q -1.17822,1.93836 -3.61068,3.11658 -2.39444,1.17822 -5.9291,1.17822 z m 36.75286,-22.91828 h -0.49409 q -0.98818,0 -1.90035,0.5321 -0.87417,0.5321 -1.44427,1.33025 l -6.76527,10.41394 v 7.75345 q 0.038,0.83616 0.64612,1.44427 0.60812,0.57011 1.52029,0.57011 h 0.41808 v 0.38007 h -10.64199 v -0.38007 h 0.45608 q 0.87417,0 1.48228,-0.57011 0.60811,-0.60811 0.64612,-1.44427 v -7.75345 l -6.72726,-10.41394 q -0.53209,-0.83616 -1.44427,-1.33025 -0.87416,-0.5321 -1.90035,-0.5321 h -0.45609 v -0.38007 h 11.55416 v 0.38007 h -0.41808 q -0.72213,0 -1.06419,0.49409 -0.30406,0.45609 -0.30406,0.79815 0,0.30406 0.15203,0.57011 l 5.05494,8.74163 5.13096,-8.74163 q 0.11402,-0.26605 0.11402,-0.57011 0,-0.34206 -0.34206,-0.79815 -0.30406,-0.49409 -1.02619,-0.49409 h -0.38008 v -0.38007 h 8.13352 z m 9.46378,22.42419 v -0.38007 h 0.45609 q 0.87416,0 1.44427,-0.57011 0.60811,-0.5701 0.60811,-1.40626 v -18.05337 q 0,-0.83616 -0.60811,-1.40627 -0.60812,-0.60811 -1.44427,-0.60811 h -0.45609 v -0.38007 h 10.56597 v 0.38007 h -0.45608 q -0.87416,0 -1.48228,0.57011 -0.60811,0.5701 -0.60811,1.44427 v 18.88953 h 4.56085 q 2.35644,-0.038 3.99075,-1.44427 1.6343,-1.44427 2.39444,-4.02876 h 0.41808 l -1.48228,6.99331 z m 45.53248,-0.38007 h 0.30406 v 0.38007 h -11.17409 v -0.38007 h 0.30406 q 0.76014,0 1.1022,-0.45609 0.34207,-0.45608 0.34207,-0.83615 0,-0.38007 -0.15203,-0.79815 l -1.48228,-3.49665 h -8.0575 l -1.52029,3.53466 q -0.15203,0.38007 -0.15203,0.79814 0,0.38008 0.34207,0.83616 0.38007,0.41808 1.14021,0.41808 h 0.30406 v 0.38007 h -7.60142 v -0.38007 h 0.30405 q 0.79815,0 1.5963,-0.49409 0.79815,-0.4941 1.29224,-1.48228 l 7.86747,-16.87515 q 1.67232,-3.76271 1.74833,-4.63687 h 0.34206 l 10.18591,21.35999 q 0.49409,1.10221 1.29224,1.63431 0.83615,0.49409 1.67231,0.49409 z M 722.66751,566.425 h 6.76526 l -3.34462,-7.94349 z m 35.49862,-15.35487 h 10.67999 v 0.38007 H 768.2 q -0.87416,0 -1.48227,0.5321 -0.57011,0.5321 -0.60812,1.36826 v 16.6091 q 0,2.35644 0.30406,3.87672 l 0.076,0.5321 h -0.34206 l -17.44526,-15.39287 v 12.58035 q 0.038,0.83615 0.60811,1.40626 0.60812,0.5321 1.48228,0.5321 h 0.64612 v 0.38007 h -10.64199 v -0.38007 h 0.60812 q 0.87416,0 1.48227,-0.5321 0.60812,-0.57011 0.60812,-1.40626 v -16.72313 q 0,-2.28042 -0.30406,-3.7627 l -0.076,-0.5321 0.34206,0.038 17.40725,15.31686 v -12.50434 q 0,-0.83615 -0.60811,-1.36825 -0.57011,-0.57011 -1.44427,-0.57011 h -0.64612 z m 15.81094,20.10576 q -3.38263,-3.1926 -3.38263,-8.74164 0,-5.54903 3.38263,-8.70362 3.42064,-3.15459 9.38776,-3.15459 2.6605,0 5.24498,0.49409 2.58448,0.45609 4.18078,1.25423 v 6.04313 h -0.30406 q -1.67231,-6.27117 -7.98149,-6.27117 -3.95274,0 -6.04313,2.77452 -2.05238,2.73651 -2.05238,7.67743 0,4.90292 1.86235,7.60142 1.90035,2.69851 5.359,2.69851 1.90035,0 3.42064,-0.87417 1.52028,-0.91217 2.01437,-2.58448 l 0.038,-4.56085 q 0,-0.72213 -0.45608,-1.10221 -0.41808,-0.41807 -1.21623,-0.41807 h -0.5321 v -0.30406 h 9.76782 v 0.30406 h -0.45608 q -1.67231,0 -1.67231,1.52028 v 5.09295 q -1.33025,1.71032 -4.48484,3.07858 -3.15459,1.36825 -6.91729,1.36825 -5.73908,-0.038 -9.15972,-3.19259 z m 49.10514,-19.72569 h -0.5321 q -0.72213,0 -1.21622,0.45609 -0.4941,0.41807 -0.5321,1.1022 v 12.58035 q 0,4.10477 -2.50847,6.46121 -2.50847,2.31843 -7.4874,2.31843 -4.94092,0 -7.71544,-2.28042 -2.73651,-2.28043 -2.73651,-6.4232 V 553.0465 q 0,-0.68413 -0.5321,-1.14021 -0.49409,-0.45609 -1.21623,-0.45609 h -0.5321 v -0.38007 h 9.99587 v 0.38007 h -0.5321 q -0.72214,0 -1.21623,0.45609 -0.49409,0.45608 -0.49409,1.14021 v 12.35231 q 0,3.49665 1.5963,5.47302 1.6343,1.97637 4.56085,1.97637 2.92655,0 4.59886,-1.86235 1.71032,-1.86235 1.71032,-5.16897 V 553.0465 q -0.038,-0.72214 -0.5321,-1.14021 -0.49409,-0.45609 -1.21623,-0.45609 h -0.49409 v -0.38007 h 7.03131 z m 25.04673,22.04412 h 0.30405 v 0.38007 h -11.17408 v -0.38007 h 0.30405 q 0.76015,0 1.10221,-0.45609 0.34206,-0.45608 0.34206,-0.83615 0,-0.38007 -0.15202,-0.79815 l -1.48228,-3.49665 h -8.05751 l -1.52028,3.53466 q -0.15203,0.38007 -0.15203,0.79814 0,0.38008 0.34206,0.83616 0.38008,0.41808 1.14022,0.41808 h 0.30405 v 0.38007 h -7.60142 v -0.38007 h 0.30406 q 0.79815,0 1.5963,-0.49409 0.79815,-0.4941 1.29224,-1.48228 l 7.86747,-16.87515 q 1.67231,-3.76271 1.74833,-4.63687 h 0.34206 l 10.1859,21.35999 q 0.4941,1.10221 1.29225,1.63431 0.83615,0.49409 1.67231,0.49409 z m -18.1674,-7.06932 h 6.76527 l -3.34463,-7.94349 z m 21.43601,4.75089 q -3.38264,-3.1926 -3.38264,-8.74164 0,-5.54903 3.38264,-8.70362 3.42064,-3.15459 9.38775,-3.15459 2.6605,0 5.24498,0.49409 2.58448,0.45609 4.18078,1.25423 v 6.04313 H 869.907 q -1.67231,-6.27117 -7.98149,-6.27117 -3.95274,0 -6.04313,2.77452 -2.05238,2.73651 -2.05238,7.67743 0,4.90292 1.86235,7.60142 1.90035,2.69851 5.359,2.69851 1.90035,0 3.42064,-0.87417 1.52028,-0.91217 2.01437,-2.58448 l 0.038,-4.56085 q 0,-0.72213 -0.45608,-1.10221 -0.41808,-0.41807 -1.21623,-0.41807 h -0.5321 v -0.30406 h 9.76782 v 0.30406 h -0.45608 q -1.67231,0 -1.67231,1.52028 v 5.09295 q -1.33025,1.71032 -4.48484,3.07858 -3.15459,1.36825 -6.91729,1.36825 -5.73907,-0.038 -9.15971,-3.19259 z m 41.57977,2.6985 h -17.90134 v -0.38007 h 0.45609 q 0.87416,0 1.44426,-0.57011 0.60812,-0.5701 0.64613,-1.40626 v -18.09138 q -0.038,-0.83616 -0.64613,-1.40626 -0.5701,-0.57011 -1.44426,-0.57011 h -0.45609 v -0.38007 h 13.3785 q 1.02619,0 2.24242,-0.19004 1.21622,-0.19003 1.71032,-0.38007 v 6.04313 h -0.38007 v -0.34206 q 0,-1.67231 -0.91217,-2.62249 -0.91217,-0.95018 -2.54648,-0.98819 h -5.47302 v 9.23573 h 4.33281 q 1.29224,-0.038 2.09039,-0.87416 0.79815,-0.83616 0.79815,-2.1284 v -0.26605 h 0.38007 v 8.0575 h -0.38007 v -0.26605 q 0,-1.78633 -1.33025,-2.58448 -0.68413,-0.41808 -1.52029,-0.41808 h -4.37081 v 9.00769 h 4.56085 q 2.35644,-0.038 3.99075,-1.44427 1.67231,-1.44427 2.43245,-4.02876 h 0.34206 z"
       id="text14"
       aria-label="seccomp policy language " /></g><g
     id="g4"
     transform="translate(959.99998)"
     style="fill:#ffffff"><path
       style="font-weight:bold;font-size:38.0071px;font-family:Cinzel;-inkscape-font-specification:'Cinzel Bold';text-align:center;text-anchor:middle;stroke-width:3.16725"
       d="m 362.43636,570.75781 q 0,-2.47046 1.10221,-4.21879 h 0.30405 q -0.038,0.26605 -0.038,0.49409 0,2.31843 1.6343,4.06676 1.67232,1.74833 4.63687,1.74833 2.1284,0 3.26861,-0.98819 1.17822,-0.98818 1.17822,-2.20441 0,-1.21623 -0.68413,-1.93836 -0.64612,-0.76014 -2.1664,-1.74833 l -5.39701,-3.42064 q -3.42064,-2.12839 -3.42064,-5.47302 0,-0.34206 0.038,-0.72213 0.22804,-2.69851 2.09039,-4.21879 1.86235,-1.55829 4.37081,-1.55829 2.54648,0 5.35901,0.34206 h 2.05238 l -0.5321,5.01694 h -0.34206 q 0,-1.78633 -1.25424,-2.81253 -1.21623,-1.02619 -3.26861,-1.02619 -2.01438,0 -3.1926,0.87417 -1.17822,0.83615 -1.17822,2.24241 0,1.14022 1.14022,1.97637 0.45608,0.34207 1.33025,0.87417 l 6.04312,3.72469 q 3.11659,1.90036 3.11659,5.24498 0,3.53466 -2.50847,5.43502 -2.47046,1.90035 -6.4232,1.90035 -2.43246,0 -4.2948,-0.5701 -1.86235,-0.57011 -2.73652,-1.44427 -0.22804,-0.68413 -0.22804,-1.5963 z m 36.75285,3.11658 h -17.90135 v -0.38007 h 0.45609 q 0.87416,0 1.44427,-0.57011 0.60811,-0.5701 0.64612,-1.40626 v -18.09138 q -0.038,-0.83616 -0.64612,-1.40626 -0.57011,-0.57011 -1.44427,-0.57011 h -0.45609 v -0.38007 h 13.3785 q 1.02619,0 2.24242,-0.19004 1.21623,-0.19003 1.71032,-0.38007 v 6.04313 h -0.38007 v -0.34206 q 0,-1.67231 -0.91217,-2.62249 -0.91217,-0.95018 -2.54648,-0.98819 h -5.47302 v 9.23573 h 4.33281 q 1.29224,-0.038 2.09039,-0.87416 0.79815,-0.83616 0.79815,-2.1284 v -0.26605 h 0.38007 v 8.0575 h -0.38007 v -0.26605 q 0,-1.78633 -1.33025,-2.58448 -0.68413,-0.41808 -1.52028,-0.41808 h -4.37082 v 9.00769 h 4.56085 q 2.35644,-0.038 3.99075,-1.44427 1.67231,-1.44427 2.43245,-4.02876 h 0.34207 z m 17.63524,0.49409 q -6.38519,-0.038 -10.03387,-3.15459 -3.64868,-3.15459 -3.64868,-8.74163 0,-5.58704 3.61067,-8.74163 3.64868,-3.15459 10.07188,-3.15459 5.01694,0 8.5516,1.74832 v 6.04313 H 425.11 q -0.95018,-3.38263 -2.92655,-4.8269 -1.97636,-1.44427 -4.97893,-1.44427 -4.02875,0 -6.15715,2.77452 -2.12839,2.73651 -2.12839,7.52541 0,4.75088 2.09039,7.56341 2.1664,2.88854 5.8911,2.88854 2.6985,0 4.44683,-0.83616 1.74833,-0.83615 2.77452,-2.6605 1.02619,-1.86234 1.52028,-5.01693 h 0.26605 l 0.45609,5.73907 q -1.17822,1.93836 -3.61068,3.11658 -2.39445,1.17822 -5.92911,1.17822 z m 26.52896,0 q -6.3852,-0.038 -10.03388,-3.15459 -3.64868,-3.15459 -3.64868,-8.74163 0,-5.58704 3.61068,-8.74163 3.64868,-3.15459 10.07188,-3.15459 5.01693,0 8.55159,1.74832 v 6.04313 h -0.26605 q -0.95017,-3.38263 -2.92654,-4.8269 -1.97637,-1.44427 -4.97893,-1.44427 -4.02875,0 -6.15715,2.77452 -2.1284,2.73651 -2.1284,7.52541 0,4.75088 2.09039,7.56341 2.16641,2.88854 5.8911,2.88854 2.69851,0 4.44683,-0.83616 1.74833,-0.83615 2.77452,-2.6605 1.02619,-1.86234 1.52028,-5.01693 h 0.26605 l 0.45609,5.73907 q -1.17822,1.93836 -3.61068,3.11658 -2.39444,1.17822 -5.9291,1.17822 z m 12.8844,-11.89622 q 0,-5.47302 3.64868,-8.66562 3.68669,-3.2306 9.76783,-3.2306 6.11914,0 9.80583,3.2306 3.68669,3.1926 3.68669,8.66562 0,5.47302 -3.68669,8.70363 -3.68669,3.19259 -9.76782,3.19259 -6.08114,0 -9.76783,-3.19259 -3.68669,-3.23061 -3.68669,-8.70363 z m 5.81509,0 q 0,4.78889 2.05238,7.60142 2.09039,2.77452 5.54904,2.77452 3.49665,0 5.54903,-2.77452 2.0904,-2.81253 2.0904,-7.60142 0,-4.78889 -2.0904,-7.56341 -2.05238,-2.81253 -5.54903,-2.81253 -3.45865,0 -5.54904,2.81253 -2.05238,2.77452 -2.05238,7.56341 z m 54.80624,11.02206 h 0.5321 v 0.38007 h -10.56598 v -0.38007 h 0.5321 q 0.72214,0 1.02619,-0.49409 0.34207,-0.4941 0.26605,-1.0262 l -1.48227,-10.87003 -6.04313,9.6158 q -1.36826,2.16641 -1.36826,3.87672 h -0.34206 l -8.77964,-13.30248 -1.29224,10.67999 q -0.076,0.5321 0.26605,1.0262 0.34206,0.49409 1.02619,0.49409 h 0.5321 v 0.38007 h -7.22135 v -0.38007 h 0.5321 q 0.95018,0 1.6343,-0.5321 0.72214,-0.57011 0.83616,-1.52028 l 2.96455,-20.8659 h 0.30406 l 10.75601,16.077 10.07188,-16.077 h 0.34206 l 3.04057,21.05593 q 0.19004,0.87416 0.87417,1.36826 0.68412,0.49409 1.55829,0.49409 z m 20.63789,-12.20028 q -1.90036,3.30662 -5.96712,3.30662 -2.01437,0 -3.99074,-1.33025 v -0.30406 q 3.80071,0 4.86491,-3.87672 0.22804,-0.87417 0.22804,-1.40626 0,-2.62249 -1.25424,-3.87673 -1.25423,-1.25423 -3.34462,-1.25423 h -1.71032 v 18.92753 q 0.038,1.21623 1.02619,1.74833 0.45609,0.26605 1.02619,0.26605 h 0.45609 v 0.38007 h -10.48996 v -0.38007 h 0.45609 q 0.83615,0 1.40626,-0.57011 0.60811,-0.5701 0.60811,-1.40626 v -18.05337 q 0,-0.87417 -0.60811,-1.44427 -0.57011,-0.57011 -1.44427,-0.57011 h -0.45609 v -0.38007 h 11.2501 q 4.37082,0 6.53723,1.74833 2.31843,1.78633 2.31843,4.90291 0,1.97637 -0.91217,3.57267 z m 31.73588,0 q -1.90035,3.30662 -5.96711,3.30662 -2.01438,0 -3.99075,-1.33025 v -0.30406 q 3.80071,0 4.86491,-3.87672 0.22804,-0.87417 0.22804,-1.40626 0,-2.62249 -1.25423,-3.87673 -1.25423,-1.25423 -3.34462,-1.25423 h -1.71032 v 18.92753 q 0.038,1.21623 1.02619,1.74833 0.45608,0.26605 1.02619,0.26605 h 0.45608 v 0.38007 h -10.48995 v -0.38007 h 0.45608 q 0.83616,0 1.40626,-0.57011 0.60812,-0.5701 0.60812,-1.40626 v -18.05337 q 0,-0.87417 -0.60812,-1.44427 -0.5701,-0.57011 -1.44427,-0.57011 h -0.45608 v -0.38007 h 11.2501 q 4.37082,0 6.53722,1.74833 2.31843,1.78633 2.31843,4.90291 0,1.97637 -0.91217,3.57267 z m 3.61065,1.17822 q 0,-5.47302 3.64868,-8.66562 3.68669,-3.2306 9.76782,-3.2306 6.11914,0 9.80583,3.2306 3.68669,3.1926 3.68669,8.66562 0,5.47302 -3.68669,8.70363 -3.68669,3.19259 -9.76782,3.19259 -6.08114,0 -9.76783,-3.19259 -3.68668,-3.23061 -3.68668,-8.70363 z m 5.81508,0 q 0,4.78889 2.05239,7.60142 2.09039,2.77452 5.54903,2.77452 3.49665,0 5.54904,-2.77452 2.09039,-2.81253 2.09039,-7.60142 0,-4.78889 -2.09039,-7.56341 -2.05239,-2.81253 -5.54904,-2.81253 -3.45864,0 -5.54903,2.81253 -2.05239,2.77452 -2.05239,7.56341 z m 23.22238,11.40213 v -0.38007 h 0.45608 q 0.87417,0 1.44427,-0.57011 0.60812,-0.5701 0.60812,-1.40626 v -18.05337 q 0,-0.83616 -0.60812,-1.40627 -0.60811,-0.60811 -1.44427,-0.60811 h -0.45608 v -0.38007 h 10.56597 v 0.38007 h -0.45608 q -0.87417,0 -1.48228,0.57011 -0.60811,0.5701 -0.60811,1.44427 v 18.88953 h 4.56085 q 2.35644,-0.038 3.99074,-1.44427 1.63431,-1.44427 2.39445,-4.02876 h 0.41808 l -1.48228,6.99331 z m 20.48582,-0.38007 h 0.45609 q 0.91217,0 1.55829,-0.57011 0.64612,-0.60811 0.64612,-1.44427 v -18.01536 q 0,-0.83616 -0.64612,-1.40627 -0.64612,-0.60811 -1.55829,-0.60811 h -0.45609 v -0.38007 h 10.79402 v 0.38007 h -0.45609 q -0.87416,0 -1.52028,0.57011 -0.64612,0.5701 -0.68413,1.40626 v 18.05337 q 0.038,0.87417 0.68413,1.44427 0.64612,0.57011 1.52028,0.57011 h 0.45609 v 0.38007 h -10.79402 z m 26.71894,0.87416 q -6.3852,-0.038 -10.03388,-3.15459 -3.64868,-3.15459 -3.64868,-8.74163 0,-5.58704 3.61067,-8.74163 3.64869,-3.15459 10.07189,-3.15459 5.01693,0 8.55159,1.74832 v 6.04313 h -0.26605 q -0.95017,-3.38263 -2.92654,-4.8269 -1.97637,-1.44427 -4.97893,-1.44427 -4.02876,0 -6.15715,2.77452 -2.1284,2.73651 -2.1284,7.52541 0,4.75088 2.09039,7.56341 2.1664,2.88854 5.8911,2.88854 2.6985,0 4.44683,-0.83616 1.74833,-0.83615 2.77452,-2.6605 1.02619,-1.86234 1.52028,-5.01693 h 0.26605 l 0.45609,5.73907 q -1.17822,1.93836 -3.61068,3.11658 -2.39444,1.17822 -5.9291,1.17822 z m 36.75286,-22.91828 h -0.49409 q -0.98818,0 -1.90035,0.5321 -0.87417,0.5321 -1.44427,1.33025 l -6.76527,10.41394 v 7.75345 q 0.038,0.83616 0.64612,1.44427 0.60812,0.57011 1.52029,0.57011 h 0.41808 v 0.38007 h -10.64199 v -0.38007 h 0.45608 q 0.87417,0 1.48228,-0.57011 0.60811,-0.60811 0.64612,-1.44427 v -7.75345 l -6.72726,-10.41394 q -0.53209,-0.83616 -1.44427,-1.33025 -0.87416,-0.5321 -1.90035,-0.5321 h -0.45609 v -0.38007 h 11.55416 v 0.38007 h -0.41808 q -0.72213,0 -1.06419,0.49409 -0.30406,0.45609 -0.30406,0.79815 0,0.30406 0.15203,0.57011 l 5.05494,8.74163 5.13096,-8.74163 q 0.11402,-0.26605 0.11402,-0.57011 0,-0.34206 -0.34206,-0.79815 -0.30406,-0.49409 -1.02619,-0.49409 h -0.38008 v -0.38007 h 8.13352 z m 9.46378,22.42419 v -0.38007 h 0.45609 q 0.87416,0 1.44427,-0.57011 0.60811,-0.5701 0.60811,-1.40626 v -18.05337 q 0,-0.83616 -0.60811,-1.40627 -0.60812,-0.60811 -1.44427,-0.60811 h -0.45609 v -0.38007 h 10.56597 v 0.38007 h -0.45608 q -0.87416,0 -1.48228,0.57011 -0.60811,0.5701 -0.60811,1.44427 v 18.88953 h 4.56085 q 2.35644,-0.038 3.99075,-1.44427 1.6343,-1.44427 2.39444,-4.02876 h 0.41808 l -1.48228,6.99331 z m 45.53248,-0.38007 h 0.30406 v 0.38007 h -11.17409 v -0.38007 h 0.30406 q 0.76014,0 1.1022,-0.45609 0.34207,-0.45608 0.34207,-0.83615 0,-0.38007 -0.15203,-0.79815 l -1.48228,-3.49665 h -8.0575 l -1.52029,3.53466 q -0.15203,0.38007 -0.15203,0.79814 0,0.38008 0.34207,0.83616 0.38007,0.41808 1.14021,0.41808 h 0.30406 v 0.38007 h -7.60142 v -0.38007 h 0.30405 q 0.79815,0 1.5963,-0.49409 0.79815,-0.4941 1.29224,-1.48228 l 7.86747,-16.87515 q 1.67232,-3.76271 1.74833,-4.63687 h 0.34206 l 10.18591,21.35999 q 0.49409,1.10221 1.29224,1.63431 0.83615,0.49409 1.67231,0.49409 z M 722.66751,566.425 h 6.76526 l -3.34462,-7.94349 z m 35.49862,-15.35487 h 10.67999 v 0.38007 H 768.2 q -0.87416,0 -1.48227,0.5321 -0.57011,0.5321 -0.60812,1.36826 v 16.6091 q 0,2.35644 0.30406,3.87672 l 0.076,0.5321 h -0.34206 l -17.44526,-15.39287 v 12.58035 q 0.038,0.83615 0.60811,1.40626 0.60812,0.5321 1.48228,0.5321 h 0.64612 v 0.38007 h -10.64199 v -0.38007 h 0.60812 q 0.87416,0 1.48227,-0.5321 0.60812,-0.57011 0.60812,-1.40626 v -16.72313 q 0,-2.28042 -0.30406,-3.7627 l -0.076,-0.5321 0.34206,0.038 17.40725,15.31686 v -12.50434 q 0,-0.83615 -0.60811,-1.36825 -0.57011,-0.57011 -1.44427,-0.57011 h -0.64612 z m 15.81094,20.10576 q -3.38263,-3.1926 -3.38263,-8.74164 0,-5.54903 3.38263,-8.70362 3.42064,-3.15459 9.38776,-3.15459 2.6605,0 5.24498,0.49409 2.58448,0.45609 4.18078,1.25423 v 6.04313 h -0.30406 q -1.67231,-6.27117 -7.98149,-6.27117 -3.95274,0 -6.04313,2.77452 -2.05238,2.73651 -2.05238,7.67743 0,4.90292 1.86235,7.60142 1.90035,2.69851 5.359,2.69851 1.90035,0 3.42064,-0.87417 1.52028,-0.91217 2.01437,-2.58448 l 0.038,-4.56085 q 0,-0.72213 -0.45608,-1.10221 -0.41808,-0.41807 -1.21623,-0.41807 h -0.5321 v -0.30406 h 9.76782 v 0.30406 h -0.45608 q -1.67231,0 -1.67231,1.52028 v 5.09295 q -1.33025,1.71032 -4.48484,3.07858 -3.15459,1.36825 -6.91729,1.36825 -5.73908,-0.038 -9.15972,-3.19259 z m 49.10514,-19.72569 h -0.5321 q -0.72213,0 -1.21622,0.45609 -0.4941,0.41807 -0.5321,1.1022 v 12.58035 q 0,4.10477 -2.50847,6.46121 -2.50847,2.31843 -7.4874,2.31843 -4.94092,0 -7.71544,-2.28042 -2.73651,-2.28043 -2.73651,-6.4232 V 553.0465 q 0,-0.68413 -0.5321,-1.14021 -0.49409,-0.45609 -1.21623,-0.45609 h -0.5321 v -0.38007 h 9.99587 v 0.38007 h -0.5321 q -0.72214,0 -1.21623,0.45609 -0.49409,0.45608 -0.49409,1.14021 v 12.35231 q 0,3.49665 1.5963,5.47302 1.6343,1.97637 4.56085,1.97637 2.92655,0 4.59886,-1.86235 1.71032,-1.86235 1.71032,-5.16897 V 553.0465 q -0.038,-0.72214 -0.5321,-1.14021 -0.49409,-0.45609 -1.21623,-0.45609 h -0.49409 v -0.38007 h 7.03131 z m 25.04673,22.04412 h 0.30405 v 0.38007 h -11.17408 v -0.38007 h 0.30405 q 0.76015,0 1.10221,-0.45609 0.34206,-0.45608 0.34206,-0.83615 0,-0.38007 -0.15202,-0.79815 l -1.48228,-3.49665 h -8.05751 l -1.52028,3.53466 q -0.15203,0.38007 -0.15203,0.79814 0,0.38008 0.34206,0.83616 0.38008,0.41808 1.14022,0.41808 h 0.30405 v 0.38007 h -7.60142 v -0.38007 h 0.30406 q 0.79815,0 1.5963,-0.49409 0.79815,-0.4941 1.29224,-1.48228 l 7.86747,-16.87515 q 1.67231,-3.76271 1.74833,-4.63687 h 0.34206 l 10.1859,21.35999 q 0.4941,1.10221 1.29225,1.63431 0.83615,0.49409 1.67231,0.49409 z m -18.1674,-7.06932 h 6.76527 l -3.34463,-7.94349 z m 21.43601,4.75089 q -3.38264,-3.1926 -3.38264,-8.74164 0,-5.54903 3.38264,-8.70362 3.42064,-3.15459 9.38775,-3.15459 2.6605,0 5.24498,0.49409 2.58448,0.45609 4.18078,1.25423 v 6.04313 H 869.907 q -1.67231,-6.27117 -7.98149,-6.27117 -3.95274,0 -6.04313,2.77452 -2.05238,2.73651 -2.05238,7.67743 0,4.90292 1.86235,7.60142 1.90035,2.69851 5.359,2.69851 1.90035,0 3.42064,-0.87417 1.52028,-0.91217 2.01437,-2.58448 l 0.038,-4.56085 q 0,-0.72213 -0.45608,-1.10221 -0.41808,-0.41807 -1.21623,-0.41807 h -0.5321 v -0.30406 h 9.76782 v 0.30406 h -0.45608 q -1.67231,0 -1.67231,1.52028 v 5.09295 q -1.33025,1.71032 -4.48484,3.07858 -3.15459,1.36825 -6.91729,1.36825 -5.73907,-0.038 -9.15971,-3.19259 z m 41.57977,2.6985 h -17.90134 v -0.38007 h 0.45609 q 0.87416,0 1.44426,-0.57011 0.60812,-0.5701 0.64613,-1.40626 v -18.09138 q -0.038,-0.83616 -0.64613,-1.40626 -0.5701,-0.57011 -1.44426,-0.57011 h -0.45609 v -0.38007 h 13.3785 q 1.02619,0 2.24242,-0.19004 1.21622,-0.19003 1.71032,-0.38007 v 6.04313 h -0.38007 v -0.34206 q 0,-1.67231 -0.91217,-2.62249 -0.91217,-0.95018 -2.54648,-0.98819 h -5.47302 v 9.23573 h 4.33281 q 1.29224,-0.038 2.09039,-0.87416 0.79815,-0.83616 0.79815,-2.1284 v -0.26605 h 0.38007 v 8.0575 h -0.38007 v -0.26605 q 0,-1.78633 -1.33025,-2.58448 -0.68413,-0.41808 -1.52029,-0.41808 h -4.37081 v 9.00769 h 4.56085 q 2.35644,-0.038 3.99075,-1.44427 1.67231,-1.44427 2.43245,-4.02876 h 0.34206 z"
       id="text4"
       aria-label="seccomp policy language " /><path
       id="path2"
       style="baseline-shift:baseline;display:inline;overflow:visible;vector-effect:none;fill:#ffffff;fill-rule:evenodd;stroke-width:0.647397;stroke-linecap:square;stroke-linejoin:round;stroke-miterlimit:8.2;paint-order:markers stroke fill;enable-background:accumulate;stop-color:#000000"
       d="m 174.40235,343.93164 c -54.53538,4.3e-4 -80.475893,74.68313 -35.53907,103.93359 14.24947,11.48878 39.11711,18.45906 65.85743,18.45899 66.60083,-1e-5 96.38236,-37.70166 64.53125,-62.78125 -18.09124,-14.24505 -49.76828,-12.86425 -71.46289,-17.48242 -22.82645,-4.85912 -20.0287,-25.43839 -12.2168,-40.97071 -3.67162,-0.76986 -7.41535,-1.1583 -11.16992,-1.1582 z m 109.97656,93.47656 c -1.61607,3.63104 -3.96645,7.08857 -6.93555,10.25196 -11.28569,12.0242 -31.79739,20.25813 -58.72656,22.52539 2.95779,-0.2614 6.21642,-0.23767 9.01758,-0.63867 -7.0724,1.01294 -14.62044,1.61591 -22.74414,1.6289 -0.089,1.3e-4 -0.18045,0 -0.26953,0 -7.06689,2e-5 -13.98471,-0.48764 -20.66407,-1.375 -2.22848,-0.296 -4.22941,-0.8856 -6.39453,-1.27734 -4.46324,-0.80731 -8.95189,-1.57495 -13.08008,-2.7793 h -0.002 c -0.0714,-0.0208 -0.13768,-0.0474 -0.20898,-0.0684 -0.0869,-0.029 -0.17411,-0.0574 -0.26368,-0.084 -11.00436,-3.26299 -20.68862,-7.87207 -28.10351,-13.79883 -5.46272,-3.58858 -9.96073,-7.82125 -13.55859,-12.5 a 104.13198,60.622314 0 0 0 -21.85743,37.16015 104.13198,60.622314 0 0 0 104.13282,60.6211 104.13198,60.622314 0 0 0 104.13281,-60.6211 104.13198,60.622314 0 0 0 -24.47461,-39.04492 z m -148.375,14.38477 c 0.0703,0.0462 0.14034,0.0927 0.21094,0.13867 l -0.39649,-0.28906 c 0.0622,0.0501 0.12306,0.10044 0.18555,0.15039 z m 174.88281,39.64648 c -4.86859,12.68648 -15.73158,23.71107 -30.09375,32.07227 -19.77147,11.51031 -46.55379,18.41406 -76.07226,18.41406 -29.51846,0 -56.30275,-6.90375 -76.07422,-18.41406 -14.36223,-8.36123 -25.22519,-19.38434 -30.093753,-32.07031 a 135.05028,77.023516 0 0 0 -28.882813,47.60547 135.05028,77.023516 0 0 0 135.050786,77.02343 135.05028,77.023516 0 0 0 135.05078,-77.02343 135.05028,77.023516 0 0 0 -28.88477,-47.60743 z" /><path
       id="path4"
       style="font-weight:800;font-size:213.292px;line-height:2.5;font-family:Rawline;-inkscape-font-specification:'Rawline Ultra-Bold';letter-spacing:-3.28824px;word-spacing:-0.0888714px;display:inline;fill:#ffffff;fill-rule:evenodd;stroke-width:11.962;stroke-linecap:square;stroke-linejoin:round;stroke-miterlimit:8.2;paint-order:markers stroke fill"
       d="m 596.81641,373.68164 v 155.69922 h 34.05664 V 496.7832 l 11.97656,-12.18554 29.26563,44.7832 h 36.24218 l -43.74023,-63.73828 40.30469,-48.21875 h -36.03516 l -38.01367,46.24023 v -89.98242 z m 237.64844,0 v 127.78711 c 0,9.58147 2.63731,16.94218 7.91406,22.08008 5.27675,5.13789 12.77575,7.70703 22.49609,7.70703 4.79074,0 9.9631,-0.59116 15.51758,-1.77148 5.62391,-1.1109 10.55377,-2.63797 14.78906,-4.58204 l -4.47851,-25.61914 c -4.44359,2.15236 -8.57388,3.22852 -12.39258,3.22852 -6.52651,0 -9.79102,-4.34066 -9.79102,-13.01953 V 373.68164 Z m -472.06641,4.26953 v 151.42969 h 34.99414 v -59.67578 h 55.92578 v -28.43164 h -55.92578 v -32.59766 h 67.79883 v -30.72461 z m 162.51367,37.28516 c -9.30375,0 -17.80878,1.59719 -25.51562,4.79101 -7.63741,3.1244 -13.95605,7.39298 -18.95508,12.8086 -4.99903,5.41562 -8.88682,11.73426 -11.66406,18.95508 -2.70781,7.15139 -4.0625,14.7546 -4.0625,22.80859 0,7.56798 1.38877,14.78844 4.16601,21.66211 2.77724,6.87367 6.66503,12.91377 11.66406,18.12109 5.06847,5.20733 11.42119,9.37366 19.0586,12.49805 7.70684,3.05496 16.1437,4.58203 25.30859,4.58203 12.56701,0 23.53697,-2.70743 32.91016,-8.12305 9.37319,-5.41562 16.31511,-12.63608 20.82812,-21.66211 l -29.05664,-8.12304 c -1.59691,3.95756 -4.65105,7.18602 -9.16406,9.68554 -4.51302,2.49952 -9.33867,3.74805 -14.47656,3.74805 -6.52652,0 -12.21991,-2.0481 -17.08008,-6.14453 -4.79074,-4.09643 -7.43,-9.71971 -7.91602,-16.87109 h 82.79688 c 0.55545,-3.74928 0.83398,-7.39457 0.83398,-10.93555 0,-7.70684 -1.35468,-14.99742 -4.0625,-21.87109 -2.63837,-6.9431 -6.42196,-13.08741 -11.35156,-18.4336 -4.9296,-5.34618 -11.21219,-9.58068 -18.84961,-12.70508 -7.6374,-3.19382 -16.10835,-4.79101 -25.41211,-4.79101 z m 235.35547,0 c -17.49661,0 -33.70905,4.85974 -48.63672,14.58008 l 10.31055,21.66211 c 6.31822,-4.23529 12.18595,-7.32351 17.60156,-9.26758 5.48506,-2.0135 11.24662,-3.02149 17.28711,-3.02149 14.99709,0 22.4961,6.31864 22.4961,18.95508 v 4.89453 c -6.94311,-2.98553 -15.27381,-4.47851 -24.99415,-4.47851 -14.23335,0 -25.82856,3.47291 -34.78515,10.41601 -8.9566,6.87367 -13.43555,15.82961 -13.43555,26.86914 0,10.13692 3.71542,18.60787 11.14453,25.41211 7.42912,6.80424 16.73177,10.20508 27.91016,10.20508 7.56798,0 14.78844,-1.66536 21.66211,-4.99805 6.9431,-3.40211 12.88094,-8.26185 17.81055,-14.58007 l 0.62304,4.89453 c 1.80521,9.51204 8.78317,14.26758 20.9336,14.26758 4.37414,0 9.1998,-0.55513 14.47656,-1.66602 v -28.32813 c -2.70782,-0.20829 -4.61567,-1.00591 -5.72656,-2.39453 -1.04147,-1.45804 -1.5625,-3.88889 -1.5625,-7.29101 v -29.16016 c 0,-15.13595 -4.65328,-26.73116 -13.95704,-34.78515 -9.23432,-8.12343 -22.28647,-12.18555 -39.1582,-12.18555 z m -235.77344,24.57812 c 6.52652,0 12.01345,2.11823 16.45704,6.35352 4.51301,4.23529 7.11623,9.85857 7.81054,16.87109 H 500.125 c 0.69431,-7.01252 3.26345,-12.6358 7.70703,-16.87109 4.51302,-4.23529 10.06617,-6.35352 16.66211,-6.35352 z m 235.56446,37.91016 c 5.90163,0 12.32447,1.21445 19.26758,3.64453 v 9.99805 c 0,2.9161 -1.80561,5.83194 -5.41602,8.74804 -2.36065,2.08294 -5.24242,3.75025 -8.64453,5 -3.3327,1.24976 -6.69945,1.87305 -10.10156,1.87305 -5.06847,0 -9.16467,-1.35274 -12.28907,-4.06055 -3.05496,-2.77724 -4.58203,-6.1099 -4.58203,-9.99804 0,-4.44358 2.04811,-8.08888 6.14453,-10.93555 4.09643,-2.84667 9.30288,-4.26953 15.6211,-4.26953 z"
       inkscape:label="txt"
       sodipodi:nodetypes="ccccccccccccccssscccsscccccccccccccscscssccssccsscccscscsscccsscscssscccscccsscssccccsscsccscsss" /></g><g
     id="g7"
     transform="translate(957.57422,959.99903)"
     style="fill:#000000"><path
       style="font-weight:bold;font-size:38.0071px;font-family:Cinzel;-inkscape-font-specification:'Cinzel Bold';text-align:center;text-anchor:middle;fill:#000000;stroke-width:3.16725"
       d="m 362.43636,570.75781 q 0,-2.47046 1.10221,-4.21879 h 0.30405 q -0.038,0.26605 -0.038,0.49409 0,2.31843 1.6343,4.06676 1.67232,1.74833 4.63687,1.74833 2.1284,0 3.26861,-0.98819 1.17822,-0.98818 1.17822,-2.20441 0,-1.21623 -0.68413,-1.93836 -0.64612,-0.76014 -2.1664,-1.74833 l -5.39701,-3.42064 q -3.42064,-2.12839 -3.42064,-5.47302 0,-0.34206 0.038,-0.72213 0.22804,-2.69851 2.09039,-4.21879 1.86235,-1.55829 4.37081,-1.55829 2.54648,0 5.35901,0.34206 h 2.05238 l -0.5321,5.01694 h -0.34206 q 0,-1.78633 -1.25424,-2.81253 -1.21623,-1.02619 -3.26861,-1.02619 -2.01438,0 -3.1926,0.87417 -1.17822,0.83615 -1.17822,2.24241 0,1.14022 1.14022,1.97637 0.45608,0.34207 1.33025,0.87417 l 6.04312,3.72469 q 3.11659,1.90036 3.11659,5.24498 0,3.53466 -2.50847,5.43502 -2.47046,1.90035 -6.4232,1.90035 -2.43246,0 -4.2948,-0.5701 -1.86235,-0.57011 -2.73652,-1.44427 -0.22804,-0.68413 -0.22804,-1.5963 z m 36.75285,3.11658 h -17.90135 v -0.38007 h 0.45609 q 0.87416,0 1.44427,-0.57011 0.60811,-0.5701 0.64612,-1.40626 v -18.09138 q -0.038,-0.83616 -0.64612,-1.40626 -0.57011,-0.57011 -1.44427,-0.57011 h -0.45609 v -0.38007 h 13.3785 q 1.02619,0 2.24242,-0.19004 1.21623,-0.19003 1.71032,-0.38007 v 6.04313 h -0.38007 v -0.34206 q 0,-1.67231 -0.91217,-2.62249 -0.91217,-0.95018 -2.54648,-0.98819 h -5.47302 v 9.23573 h 4.33281 q 1.29224,-0.038 2.09039,-0.87416 0.79815,-0.83616 0.79815,-2.1284 v -0.26605 h 0.38007 v 8.0575 h -0.38007 v -0.26605 q 0,-1.78633 -1.33025,-2.58448 -0.68413,-0.41808 -1.52028,-0.41808 h -4.37082 v 9.00769 h 4.56085 q 2.35644,-0.038 3.99075,-1.44427 1.67231,-1.44427 2.43245,-4.02876 h 0.34207 z m 17.63524,0.49409 q -6.38519,-0.038 -10.03387,-3.15459 -3.64868,-3.15459 -3.64868,-8.74163 0,-5.58704 3.61067,-8.74163 3.64868,-3.15459 10.07188,-3.15459 5.01694,0 8.5516,1.74832 v 6.04313 H 425.11 q -0.95018,-3.38263 -2.92655,-4.8269 -1.97636,-1.44427 -4.97893,-1.44427 -4.02875,0 -6.15715,2.77452 -2.12839,2.73651 -2.12839,7.52541 0,4.75088 2.09039,7.56341 2.1664,2.88854 5.8911,2.88854 2.6985,0 4.44683,-0.83616 1.74833,-0.83615 2.77452,-2.6605 1.02619,-1.86234 1.52028,-5.01693 h 0.26605 l 0.45609,5.73907 q -1.17822,1.93836 -3.61068,3.11658 -2.39445,1.17822 -5.92911,1.17822 z m 26.52896,0 q -6.3852,-0.038 -10.03388,-3.15459 -3.64868,-3.15459 -3.64868,-8.74163 0,-5.58704 3.61068,-8.74163 3.64868,-3.15459 10.07188,-3.15459 5.01693,0 8.55159,1.74832 v 6.04313 h -0.26605 q -0.95017,-3.38263 -2.92654,-4.8269 -1.97637,-1.44427 -4.97893,-1.44427 -4.02875,0 -6.15715,2.77452 -2.1284,2.73651 -2.1284,7.52541 0,4.75088 2.09039,7.56341 2.16641,2.88854 5.8911,2.88854 2.69851,0 4.44683,-0.83616 1.74833,-0.83615 2.77452,-2.6605 1.02619,-1.86234 1.52028,-5.01693 h 0.26605 l 0.45609,5.73907 q -1.17822,1.93836 -3.61068,3.11658 -2.39444,1.17822 -5.9291,1.17822 z m 12.8844,-11.89622 q 0,-5.47302 3.64868,-8.66562 3.68669,-3.2306 9.76783,-3.2306 6.11914,0 9.80583,3.2306 3.68669,3.1926 3.68669,8.66562 0,5.47302 -3.68669,8.70363 -3.68669,3.19259 -9.76782,3.19259 -6.08114,0 -9.76783,-3.19259 -3.68669,-3.23061 -3.68669,-8.70363 z m 5.81509,0 q 0,4.78889 2.05238,7.60142 2.09039,2.77452 5.54904,2.77452 3.49665,0 5.54903,-2.77452 2.0904,-2.81253 2.0904,-7.60142 0,-4.78889 -2.0904,-7.56341 -2.05238,-2.81253 -5.54903,-2.81253 -3.45865,0 -5.54904,2.81253 -2.05238,2.77452 -2.05238,7.56341 z m 54.80624,11.02206 h 0.5321 v 0.38007 h -10.56598 v -0.38007 h 0.5321 q 0.72214,0 1.02619,-0.49409 0.34207,-0.4941 0.26605,-1.0262 l -1.48227,-10.87003 -6.04313,9.6158 q -1.36826,2.16641 -1.36826,3.87672 h -0.34206 l -8.77964,-13.30248 -1.29224,10.67999 q -0.076,0.5321 0.26605,1.0262 0.34206,0.49409 1.02619,0.49409 h 0.5321 v 0.38007 h -7.22135 v -0.38007 h 0.5321 q 0.95018,0 1.6343,-0.5321 0.72214,-0.57011 0.83616,-1.52028 l 2.96455,-20.8659 h 0.30406 l 10.75601,16.077 10.07188,-16.077 h 0.34206 l 3.04057,21.05593 q 0.19004,0.87416 0.87417,1.36826 0.68412,0.49409 1.55829,0.49409 z m 20.63789,-12.20028 q -1.90036,3.30662 -5.96712,3.30662 -2.01437,0 -3.99074,-1.33025 v -0.30406 q 3.80071,0 4.86491,-3.87672 0.22804,-0.87417 0.22804,-1.40626 0,-2.62249 -1.25424,-3.87673 -1.25423,-1.25423 -3.34462,-1.25423 h -1.71032 v 18.92753 q 0.038,1.21623 1.02619,1.74833 0.45609,0.26605 1.02619,0.26605 h 0.45609 v 0.38007 h -10.48996 v -0.38007 h 0.45609 q 0.83615,0 1.40626,-0.57011 0.60811,-0.5701 0.60811,-1.40626 v -18.05337 q 0,-0.87417 -0.60811,-1.44427 -0.57011,-0.57011 -1.44427,-0.57011 h -0.45609 v -0.38007 h 11.2501 q 4.37082,0 6.53723,1.74833 2.31843,1.78633 2.31843,4.90291 0,1.97637 -0.91217,3.57267 z m 31.73588,0 q -1.90035,3.30662 -5.96711,3.30662 -2.01438,0 -3.99075,-1.33025 v -0.30406 q 3.80071,0 4.86491,-3.87672 0.22804,-0.87417 0.22804,-1.40626 0,-2.62249 -1.25423,-3.87673 -1.25423,-1.25423 -3.34462,-1.25423 h -1.71032 v 18.92753 q 0.038,1.21623 1.02619,1.74833 0.45608,0.26605 1.02619,0.26605 h 0.45608 v 0.38007 h -10.48995 v -0.38007 h 0.45608 q 0.83616,0 1.40626,-0.57011 0.60812,-0.5701 0.60812,-1.40626 v -18.05337 q 0,-0.87417 -0.60812,-1.44427 -0.5701,-0.57011 -1.44427,-0.57011 h -0.45608 v -0.38007 h 11.2501 q 4.37082,0 6.53722,1.74833 2.31843,1.78633 2.31843,4.90291 0,1.97637 -0.91217,3.57267 z m 3.61065,1.17822 q 0,-5.47302 3.64868,-8.66562 3.68669,-3.2306 9.76782,-3.2306 6.11914,0 9.80583,3.2306 3.68669,3.1926 3.68669,8.66562 0,5.47302 -3.68669,8.70363 -3.68669,3.19259 -9.76782,3.19259 -6.08114,0 -9.76783,-3.19259 -3.68668,-3.23061 -3.68668,-8.70363 z m 5.81508,0 q 0,4.78889 2.05239,7.60142 2.09039,2.77452 5.54903,2.77452 3.49665,0 5.54904,-2.77452 2.09039,-2.81253 2.09039,-7.60142 0,-4.78889 -2.09039,-7.56341 -2.05239,-2.81253 -5.54904,-2.81253 -3.45864,0 -5.54903,2.81253 -2.05239,2.77452 -2.05239,7.56341 z m 23.22238,11.40213 v -0.38007 h 0.45608 q 0.87417,0 1.44427,-0.57011 0.60812,-0.5701 0.60812,-1.40626 v -18.05337 q 0,-0.83616 -0.60812,-1.40627 -0.60811,-0.60811 -1.44427,-0.60811 h -0.45608 v -0.38007 h 10.56597 v 0.38007 h -0.45608 q -0.87417,0 -1.48228,0.57011 -0.60811,0.5701 -0.60811,1.44427 v 18.88953 h 4.56085 q 2.35644,-0.038 3.99074,-1.44427 1.63431,-1.44427 2.39445,-4.02876 h 0.41808 l -1.48228,6.99331 z m 20.48582,-0.38007 h 0.45609 q 0.91217,0 1.55829,-0.57011 0.64612,-0.60811 0.64612,-1.44427 v -18.01536 q 0,-0.83616 -0.64612,-1.40627 -0.64612,-0.60811 -1.55829,-0.60811 h -0.45609 v -0.38007 h 10.79402 v 0.38007 h -0.45609 q -0.87416,0 -1.52028,0.57011 -0.64612,0.5701 -0.68413,1.40626 v 18.05337 q 0.038,0.87417 0.68413,1.44427 0.64612,0.57011 1.52028,0.57011 h 0.45609 v 0.38007 h -10.79402 z m 26.71894,0.87416 q -6.3852,-0.038 -10.03388,-3.15459 -3.64868,-3.15459 -3.64868,-8.74163 0,-5.58704 3.61067,-8.74163 3.64869,-3.15459 10.07189,-3.15459 5.01693,0 8.55159,1.74832 v 6.04313 h -0.26605 q -0.95017,-3.38263 -2.92654,-4.8269 -1.97637,-1.44427 -4.97893,-1.44427 -4.02876,0 -6.15715,2.77452 -2.1284,2.73651 -2.1284,7.52541 0,4.75088 2.09039,7.56341 2.1664,2.88854 5.8911,2.88854 2.6985,0 4.44683,-0.83616 1.74833,-0.83615 2.77452,-2.6605 1.02619,-1.86234 1.52028,-5.01693 h 0.26605 l 0.45609,5.73907 q -1.17822,1.93836 -3.61068,3.11658 -2.39444,1.17822 -5.9291,1.17822 z m 36.75286,-22.91828 h -0.49409 q -0.98818,0 -1.90035,0.5321 -0.87417,0.5321 -1.44427,1.33025 l -6.76527,10.41394 v 7.75345 q 0.038,0.83616 0.64612,1.44427 0.60812,0.57011 1.52029,0.57011 h 0.41808 v 0.38007 h -10.64199 v -0.38007 h 0.45608 q 0.87417,0 1.48228,-0.57011 0.60811,-0.60811 0.64612,-1.44427 v -7.75345 l -6.72726,-10.41394 q -0.53209,-0.83616 -1.44427,-1.33025 -0.87416,-0.5321 -1.90035,-0.5321 h -0.45609 v -0.38007 h 11.55416 v 0.38007 h -0.41808 q -0.72213,0 -1.06419,0.49409 -0.30406,0.45609 -0.30406,0.79815 0,0.30406 0.15203,0.57011 l 5.05494,8.74163 5.13096,-8.74163 q 0.11402,-0.26605 0.11402,-0.57011 0,-0.34206 -0.34206,-0.79815 -0.30406,-0.49409 -1.02619,-0.49409 h -0.38008 v -0.38007 h 8.13352 z m 9.46378,22.42419 v -0.38007 h 0.45609 q 0.87416,0 1.44427,-0.57011 0.60811,-0.5701 0.60811,-1.40626 v -18.05337 q 0,-0.83616 -0.60811,-1.40627 -0.60812,-0.60811 -1.44427,-0.60811 h -0.45609 v -0.38007 h 10.56597 v 0.38007 h -0.45608 q -0.87416,0 -1.48228,0.57011 -0.60811,0.5701 -0.60811,1.44427 v 18.88953 h 4.56085 q 2.35644,-0.038 3.99075,-1.44427 1.6343,-1.44427 2.39444,-4.02876 h 0.41808 l -1.48228,6.99331 z m 45.53248,-0.38007 h 0.30406 v 0.38007 h -11.17409 v -0.38007 h 0.30406 q 0.76014,0 1.1022,-0.45609 0.34207,-0.45608 0.34207,-0.83615 0,-0.38007 -0.15203,-0.79815 l -1.48228,-3.49665 h -8.0575 l -1.52029,3.53466 q -0.15203,0.38007 -0.15203,0.79814 0,0.38008 0.34207,0.83616 0.38007,0.41808 1.14021,0.41808 h 0.30406 v 0.38007 h -7.60142 v -0.38007 h 0.30405 q 0.79815,0 1.5963,-0.49409 0.79815,-0.4941 1.29224,-1.48228 l 7.86747,-16.87515 q 1.67232,-3.76271 1.74833,-4.63687 h 0.34206 l 10.18591,21.35999 q 0.49409,1.10221 1.29224,1.63431 0.83615,0.49409 1.67231,0.49409 z M 722.66751,566.425 h 6.76526 l -3.34462,-7.94349 z m 35.49862,-15.35487 h 10.67999 v 0.38007 H 768.2 q -0.87416,0 -1.48227,0.5321 -0.57011,0.5321 -0.60812,1.36826 v 16.6091 q 0,2.35644 0.30406,3.87672 l 0.076,0.5321 h -0.34206 l -17.44526,-15.39287 v 12.58035 q 0.038,0.83615 0.60811,1.40626 0.60812,0.5321 1.48228,0.5321 h 0.64612 v 0.38007 h -10.64199 v -0.38007 h 0.60812 q 0.87416,0 1.48227,-0.5321 0.60812,-0.57011 0.60812,-1.40626 v -16.72313 q 0,-2.28042 -0.30406,-3.7627 l -0.076,-0.5321 0.34206,0.038 17.40725,15.31686 v -12.50434 q 0,-0.83615 -0.60811,-1.36825 -0.57011,-0.57011 -1.44427,-0.57011 h -0.64612 z m 15.81094,20.10576 q -3.38263,-3.1926 -3.38263,-8.74164 0,-5.54903 3.38263,-8.70362 3.42064,-3.15459 9.38776,-3.15459 2.6605,0 5.24498,0.49409 2.58448,0.45609 4.18078,1.25423 v 6.04313 h -0.30406 q -1.67231,-6.27117 -7.98149,-6.27117 -3.95274,0 -6.04313,2.77452 -2.05238,2.73651 -2.05238,7.67743 0,4.90292 1.86235,7.60142 1.90035,2.69851 5.359,2.69851 1.90035,0 3.42064,-0.87417 1.52028,-0.91217 2.01437,-2.58448 l 0.038,-4.56085 q 0,-0.72213 -0.45608,-1.10221 -0.41808,-0.41807 -1.21623,-0.41807 h -0.5321 v -0.30406 h 9.76782 v 0.30406 h -0.45608 q -1.67231,0 -1.67231,1.52028 v 5.09295 q -1.33025,1.71032 -4.48484,3.07858 -3.15459,1.36825 -6.91729,1.36825 -5.73908,-0.038 -9.15972,-3.19259 z m 49.10514,-19.72569 h -0.5321 q -0.72213,0 -1.21622,0.45609 -0.4941,0.41807 -0.5321,1.1022 v 12.58035 q 0,4.10477 -2.50847,6.46121 -2.50847,2.31843 -7.4874,2.31843 -4.94092,0 -7.71544,-2.28042 -2.73651,-2.28043 -2.73651,-6.4232 V 553.0465 q 0,-0.68413 -0.5321,-1.14021 -0.49409,-0.45609 -1.21623,-0.45609 h -0.5321 v -0.38007 h 9.99587 v 0.38007 h -0.5321 q -0.72214,0 -1.21623,0.45609 -0.49409,0.45608 -0.49409,1.14021 v 12.35231 q 0,3.49665 1.5963,5.47302 1.6343,1.97637 4.56085,1.97637 2.92655,0 4.59886,-1.86235 1.71032,-1.86235 1.71032,-5.16897 V 553.0465 q -0.038,-0.72214 -0.5321,-1.14021 -0.49409,-0.45609 -1.21623,-0.45609 h -0.49409 v -0.38007 h 7.03131 z m 25.04673,22.04412 h 0.30405 v 0.38007 h -11.17408 v -0.38007 h 0.30405 q 0.76015,0 1.10221,-0.45609 0.34206,-0.45608 0.34206,-0.83615 0,-0.38007 -0.15202,-0.79815 l -1.48228,-3.49665 h -8.05751 l -1.52028,3.53466 q -0.15203,0.38007 -0.15203,0.79814 0,0.38008 0.34206,0.83616 0.38008,0.41808 1.14022,0.41808 h 0.30405 v 0.38007 h -7.60142 v -0.38007 h 0.30406 q 0.79815,0 1.5963,-0.49409 0.79815,-0.4941 1.29224,-1.48228 l 7.86747,-16.87515 q 1.67231,-3.76271 1.74833,-4.63687 h 0.34206 l 10.1859,21.35999 q 0.4941,1.10221 1.29225,1.63431 0.83615,0.49409 1.67231,0.49409 z m -18.1674,-7.06932 h 6.76527 l -3.34463,-7.94349 z m 21.43601,4.75089 q -3.38264,-3.1926 -3.38264,-8.74164 0,-5.54903 3.38264,-8.70362 3.42064,-3.15459 9.38775,-3.15459 2.6605,0 5.24498,0.49409 2.58448,0.45609 4.18078,1.25423 v 6.04313 H 869.907 q -1.67231,-6.27117 -7.98149,-6.27117 -3.95274,0 -6.04313,2.77452 -2.05238,2.73651 -2.05238,7.67743 0,4.90292 1.86235,7.60142 1.90035,2.69851 5.359,2.69851 1.90035,0 3.42064,-0.87417 1.52028,-0.91217 2.01437,-2.58448 l 0.038,-4.56085 q 0,-0.72213 -0.45608,-1.10221 -0.41808,-0.41807 -1.21623,-0.41807 h -0.5321 v -0.30406 h 9.76782 v 0.30406 h -0.45608 q -1.67231,0 -1.67231,1.52028 v 5.09295 q -1.33025,1.71032 -4.48484,3.07858 -3.15459,1.36825 -6.91729,1.36825 -5.73907,-0.038 -9.15971,-3.19259 z m 41.57977,2.6985 h -17.90134 v -0.38007 h 0.45609 q 0.87416,0 1.44426,-0.57011 0.60812,-0.5701 0.64613,-1.40626 v -18.09138 q -0.038,-0.83616 -0.64613,-1.40626 -0.5701,-0.57011 -1.44426,-0.57011 h -0.45609 v -0.38007 h 13.3785 q 1.02619,0 2.24242,-0.19004 1.21622,-0.19003 1.71032,-0.38007 v 6.04313 h -0.38007 v -0.34206 q 0,-1.67231 -0.91217,-2.62249 -0.91217,-0.95018 -2.54648,-0.98819 h -5.47302 v 9.23573 h 4.33281 q 1.29224,-0.038 2.09039,-0.87416 0.79815,-0.83616 0.79815,-2.1284 v -0.26605 h 0.38007 v 8.0575 h -0.38007 v -0.26605 q 0,-1.78633 -1.33025,-2.58448 -0.68413,-0.41808 -1.52029,-0.41808 h -4.37081 v 9.00769 h 4.56085 q 2.35644,-0.038 3.99075,-1.44427 1.67231,-1.44427 2.43245,-4.02876 h 0.34206 z"
       id="path5"
       aria-label="seccomp policy language " /><path
       id="path6"
       style="baseline-shift:baseline;display:inline;overflow:visible;vector-effect:none;fill:#000000;fill-rule:evenodd;stroke-width:0.647397;stroke-linecap:square;stroke-linejoin:round;stroke-miterlimit:8.2;paint-order:markers stroke fill;enable-background:accumulate;stop-color:#000000"
       d="m 174.40235,343.93164 c -54.53538,4.3e-4 -80.475893,74.68313 -35.53907,103.93359 14.24947,11.48878 39.11711,18.45906 65.85743,18.45899 66.60083,-1e-5 96.38236,-37.70166 64.53125,-62.78125 -18.09124,-14.24505 -49.76828,-12.86425 -71.46289,-17.48242 -22.82645,-4.85912 -20.0287,-25.43839 -12.2168,-40.97071 -3.67162,-0.76986 -7.41535,-1.1583 -11.16992,-1.1582 z m 109.97656,93.47656 c -1.61607,3.63104 -3.96645,7.08857 -6.93555,10.25196 -11.28569,12.0242 -31.79739,20.25813 -58.72656,22.52539 2.95779,-0.2614 6.21642,-0.23767 9.01758,-0.63867 -7.0724,1.01294 -14.62044,1.61591 -22.74414,1.6289 -0.089,1.3e-4 -0.18045,0 -0.26953,0 -7.06689,2e-5 -13.98471,-0.48764 -20.66407,-1.375 -2.22848,-0.296 -4.22941,-0.8856 -6.39453,-1.27734 -4.46324,-0.80731 -8.95189,-1.57495 -13.08008,-2.7793 h -0.002 c -0.0714,-0.0208 -0.13768,-0.0474 -0.20898,-0.0684 -0.0869,-0.029 -0.17411,-0.0574 -0.26368,-0.084 -11.00436,-3.26299 -20.68862,-7.87207 -28.10351,-13.79883 -5.46272,-3.58858 -9.96073,-7.82125 -13.55859,-12.5 a 104.13198,60.622314 0 0 0 -21.85743,37.16015 104.13198,60.622314 0 0 0 104.13282,60.6211 104.13198,60.622314 0 0 0 104.13281,-60.6211 104.13198,60.622314 0 0 0 -24.47461,-39.04492 z m -148.375,14.38477 c 0.0703,0.0462 0.14034,0.0927 0.21094,0.13867 l -0.39649,-0.28906 c 0.0622,0.0501 0.12306,0.10044 0.18555,0.15039 z m 174.88281,39.64648 c -4.86859,12.68648 -15.73158,23.71107 -30.09375,32.07227 -19.77147,11.51031 -46.55379,18.41406 -76.07226,18.41406 -29.51846,0 -56.30275,-6.90375 -76.07422,-18.41406 -14.36223,-8.36123 -25.22519,-19.38434 -30.093753,-32.07031 a 135.05028,77.023516 0 0 0 -28.882813,47.60547 135.05028,77.023516 0 0 0 135.050786,77.02343 135.05028,77.023516 0 0 0 135.05078,-77.02343 135.05028,77.023516 0 0 0 -28.88477,-47.60743 z" /><path
       id="path7"
       style="font-weight:800;font-size:213.292px;line-height:2.5;font-family:Rawline;-inkscape-font-specification:'Rawline Ultra-Bold';letter-spacing:-3.28824px;word-spacing:-0.0888714px;display:inline;fill:#000000;fill-rule:evenodd;stroke-width:11.962;stroke-linecap:square;stroke-linejoin:round;stroke-miterlimit:8.2;paint-order:markers stroke fill"
       d="m 596.81641,373.68164 v 155.69922 h 34.05664 V 496.7832 l 11.97656,-12.18554 29.26563,44.7832 h 36.24218 l -43.74023,-63.73828 40.30469,-48.21875 h -36.03516 l -38.01367,46.24023 v -89.98242 z m 237.64844,0 v 127.78711 c 0,9.58147 2.63731,16.94218 7.91406,22.08008 5.27675,5.13789 12.77575,7.70703 22.49609,7.70703 4.79074,0 9.9631,-0.59116 15.51758,-1.77148 5.62391,-1.1109 10.55377,-2.63797 14.78906,-4.58204 l -4.47851,-25.61914 c -4.44359,2.15236 -8.57388,3.22852 -12.39258,3.22852 -6.52651,0 -9.79102,-4.34066 -9.79102,-13.01953 V 373.68164 Z m -472.06641,4.26953 v 151.42969 h 34.99414 v -59.67578 h 55.92578 v -28.43164 h -55.92578 v -32.59766 h 67.79883 v -30.72461 z m 162.51367,37.28516 c -9.30375,0 -17.80878,1.59719 -25.51562,4.79101 -7.63741,3.1244 -13.95605,7.39298 -18.95508,12.8086 -4.99903,5.41562 -8.88682,11.73426 -11.66406,18.95508 -2.70781,7.15139 -4.0625,14.7546 -4.0625,22.80859 0,7.56798 1.38877,14.78844 4.16601,21.66211 2.77724,6.87367 6.66503,12.91377 11.66406,18.12109 5.06847,5.20733 11.42119,9.37366 19.0586,12.49805 7.70684,3.05496 16.1437,4.58203 25.30859,4.58203 12.56701,0 23.53697,-2.70743 32.91016,-8.12305 9.37319,-5.41562 16.31511,-12.63608 20.82812,-21.66211 l -29.05664,-8.12304 c -1.59691,3.95756 -4.65105,7.18602 -9.16406,9.68554 -4.51302,2.49952 -9.33867,3.74805 -14.47656,3.74805 -6.52652,0 -12.21991,-2.0481 -17.08008,-6.14453 -4.79074,-4.09643 -7.43,-9.71971 -7.91602,-16.87109 h 82.79688 c 0.55545,-3.74928 0.83398,-7.39457 0.83398,-10.93555 0,-7.70684 -1.35468,-14.99742 -4.0625,-21.87109 -2.63837,-6.9431 -6.42196,-13.08741 -11.35156,-18.4336 -4.9296,-5.34618 -11.21219,-9.58068 -18.84961,-12.70508 -7.6374,-3.19382 -16.10835,-4.79101 -25.41211,-4.79101 z m 235.35547,0 c -17.49661,0 -33.70905,4.85974 -48.63672,14.58008 l 10.31055,21.66211 c 6.31822,-4.23529 12.18595,-7.32351 17.60156,-9.26758 5.48506,-2.0135 11.24662,-3.02149 17.28711,-3.02149 14.99709,0 22.4961,6.31864 22.4961,18.95508 v 4.89453 c -6.94311,-2.98553 -15.27381,-4.47851 -24.99415,-4.47851 -14.23335,0 -25.82856,3.47291 -34.78515,10.41601 -8.9566,6.87367 -13.43555,15.82961 -13.43555,26.86914 0,10.13692 3.71542,18.60787 11.14453,25.41211 7.42912,6.80424 16.73177,10.20508 27.91016,10.20508 7.56798,0 14.78844,-1.66536 21.66211,-4.99805 6.9431,-3.40211 12.88094,-8.26185 17.81055,-14.58007 l 0.62304,4.89453 c 1.80521,9.51204 8.78317,14.26758 20.9336,14.26758 4.37414,0 9.1998,-0.55513 14.47656,-1.66602 v -28.32813 c -2.70782,-0.20829 -4.61567,-1.00591 -5.72656,-2.39453 -1.04147,-1.45804 -1.5625,-3.88889 -1.5625,-7.29101 v -29.16016 c 0,-15.13595 -4.65328,-26.73116 -13.95704,-34.78515 -9.23432,-8.12343 -22.28647,-12.18555 -39.1582,-12.18555 z m -235.77344,24.57812 c 6.52652,0 12.01345,2.11823 16.45704,6.35352 4.51301,4.23529 7.11623,9.85857 7.81054,16.87109 H 500.125 c 0.69431,-7.01252 3.26345,-12.6358 7.70703,-16.87109 4.51302,-4.23529 10.06617,-6.35352 16.66211,-6.35352 z m 235.56446,37.91016 c 5.90163,0 12.32447,1.21445 19.26758,3.64453 v 9.99805 c 0,2.9161 -1.80561,5.83194 -5.41602,8.74804 -2.36065,2.08294 -5.24242,3.75025 -8.64453,5 -3.3327,1.24976 -6.69945,1.87305 -10.10156,1.87305 -5.06847,0 -9.16467,-1.35274 -12.28907,-4.06055 -3.05496,-2.77724 -4.58203,-6.1099 -4.58203,-9.99804 0,-4.44358 2.04811,-8.08888 6.14453,-10.93555 4.09643,-2.84667 9.30288,-4.26953 15.6211,-4.26953 z"
       inkscape:label="txt"
       sodipodi:nodetypes="ccccccccccccccssscccsscccccccccccccscscssccssccsscccscscsscccsscscssscccscccsscssccccsscsccscsss" /></g><g
     id="g10"
     transform="translate(-2.4257795,959.99903)"
     style="fill:#ffffff"><path
       style="font-weight:bold;font-size:38.0071px;font-family:Cinzel;-inkscape-font-specification:'Cinzel Bold';text-align:center;text-anchor:middle;fill:#ffffff;stroke-width:3.16725"
       d="m 362.43636,570.75781 q 0,-2.47046 1.10221,-4.21879 h 0.30405 q -0.038,0.26605 -0.038,0.49409 0,2.31843 1.6343,4.06676 1.67232,1.74833 4.63687,1.74833 2.1284,0 3.26861,-0.98819 1.17822,-0.98818 1.17822,-2.20441 0,-1.21623 -0.68413,-1.93836 -0.64612,-0.76014 -2.1664,-1.74833 l -5.39701,-3.42064 q -3.42064,-2.12839 -3.42064,-5.47302 0,-0.34206 0.038,-0.72213 0.22804,-2.69851 2.09039,-4.21879 1.86235,-1.55829 4.37081,-1.55829 2.54648,0 5.35901,0.34206 h 2.05238 l -0.5321,5.01694 h -0.34206 q 0,-1.78633 -1.25424,-2.81253 -1.21623,-1.02619 -3.26861,-1.02619 -2.01438,0 -3.1926,0.87417 -1.17822,0.83615 -1.17822,2.24241 0,1.14022 1.14022,1.97637 0.45608,0.34207 1.33025,0.87417 l 6.04312,3.72469 q 3.11659,1.90036 3.11659,5.24498 0,3.53466 -2.50847,5.43502 -2.47046,1.90035 -6.4232,1.90035 -2.43246,0 -4.2948,-0.5701 -1.86235,-0.57011 -2.73652,-1.44427 -0.22804,-0.68413 -0.22804,-1.5963 z m 36.75285,3.11658 h -17.90135 v -0.38007 h 0.45609 q 0.87416,0 1.44427,-0.57011 0.60811,-0.5701 0.64612,-1.40626 v -18.09138 q -0.038,-0.83616 -0.64612,-1.40626 -0.57011,-0.57011 -1.44427,-0.57011 h -0.45609 v -0.38007 h 13.3785 q 1.02619,0 2.24242,-0.19004 1.21623,-0.19003 1.71032,-0.38007 v 6.04313 h -0.38007 v -0.34206 q 0,-1.67231 -0.91217,-2.62249 -0.91217,-0.95018 -2.54648,-0.98819 h -5.47302 v 9.23573 h 4.33281 q 1.29224,-0.038 2.09039,-0.87416 0.79815,-0.83616 0.79815,-2.1284 v -0.26605 h 0.38007 v 8.0575 h -0.38007 v -0.26605 q 0,-1.78633 -1.33025,-2.58448 -0.68413,-0.41808 -1.52028,-0.41808 h -4.37082 v 9.00769 h 4.56085 q 2.35644,-0.038 3.99075,-1.44427 1.67231,-1.44427 2.43245,-4.02876 h 0.34207 z m 17.63524,0.49409 q -6.38519,-0.038 -10.03387,-3.15459 -3.64868,-3.15459 -3.64868,-8.74163 0,-5.58704 3.61067,-8.74163 3.64868,-3.15459 10.07188,-3.15459 5.01694,0 8.5516,1.74832 v 6.04313 H 425.11 q -0.95018,-3.38263 -2.92655,-4.8269 -1.97636,-1.44427 -4.97893,-1.44427 -4.02875,0 -6.15715,2.77452 -2.12839,2.73651 -2.12839,7.52541 0,4.75088 2.09039,7.56341 2.1664,2.88854 5.8911,2.88854 2.6985,0 4.44683,-0.83616 1.74833,-0.83615 2.77452,-2.6605 1.02619,-1.86234 1.52028,-5.01693 h 0.26605 l 0.45609,5.73907 q -1.17822,1.93836 -3.61068,3.11658 -2.39445,1.17822 -5.92911,1.17822 z m 26.52896,0 q -6.3852,-0.038 -10.03388,-3.15459 -3.64868,-3.15459 -3.64868,-8.74163 0,-5.58704 3.61068,-8.74163 3.64868,-3.15459 10.07188,-3.15459 5.01693,0 8.55159,1.74832 v 6.04313 h -0.26605 q -0.95017,-3.38263 -2.92654,-4.8269 -1.97637,-1.44427 -4.97893,-1.44427 -4.02875,0 -6.15715,2.77452 -2.1284,2.73651 -2.1284,7.52541 0,4.75088 2.09039,7.56341 2.16641,2.88854 5.8911,2.88854 2.69851,0 4.44683,-0.83616 1.74833,-0.83615 2.77452,-2.6605 1.02619,-1.86234 1.52028,-5.01693 h 0.26605 l 0.45609,5.73907 q -1.17822,1.93836 -3.61068,3.11658 -2.39444,1.17822 -5.9291,1.17822 z m 12.8844,-11.89622 q 0,-5.47302 3.64868,-8.66562 3.68669,-3.2306 9.76783,-3.2306 6.11914,0 9.80583,3.2306 3.68669,3.1926 3.68669,8.66562 0,5.47302 -3.68669,8.70363 -3.68669,3.19259 -9.76782,3.19259 -6.08114,0 -9.76783,-3.19259 -3.68669,-3.23061 -3.68669,-8.70363 z m 5.81509,0 q 0,4.78889 2.05238,7.60142 2.09039,2.77452 5.54904,2.77452 3.49665,0 5.54903,-2.77452 2.0904,-2.81253 2.0904,-7.60142 0,-4.78889 -2.0904,-7.56341 -2.05238,-2.81253 -5.54903,-2.81253 -3.45865,0 -5.54904,2.81253 -2.05238,2.77452 -2.05238,7.56341 z m 54.80624,11.02206 h 0.5321 v 0.38007 h -10.56598 v -0.38007 h 0.5321 q 0.72214,0 1.02619,-0.49409 0.34207,-0.4941 0.26605,-1.0262 l -1.48227,-10.87003 -6.04313,9.6158 q -1.36826,2.16641 -1.36826,3.87672 h -0.34206 l -8.77964,-13.30248 -1.29224,10.67999 q -0.076,0.5321 0.26605,1.0262 0.34206,0.49409 1.02619,0.49409 h 0.5321 v 0.38007 h -7.22135 v -0.38007 h 0.5321 q 0.95018,0 1.6343,-0.5321 0.72214,-0.57011 0.83616,-1.52028 l 2.96455,-20.8659 h 0.30406 l 10.75601,16.077 10.07188,-16.077 h 0.34206 l 3.04057,21.05593 q 0.19004,0.87416 0.87417,1.36826 0.68412,0.49409 1.55829,0.49409 z m 20.63789,-12.20028 q -1.90036,3.30662 -5.96712,3.30662 -2.01437,0 -3.99074,-1.33025 v -0.30406 q 3.80071,0 4.86491,-3.87672 0.22804,-0.87417 0.22804,-1.40626 0,-2.62249 -1.25424,-3.87673 -1.25423,-1.25423 -3.34462,-1.25423 h -1.71032 v 18.92753 q 0.038,1.21623 1.02619,1.74833 0.45609,0.26605 1.02619,0.26605 h 0.45609 v 0.38007 h -10.48996 v -0.38007 h 0.45609 q 0.83615,0 1.40626,-0.57011 0.60811,-0.5701 0.60811,-1.40626 v -18.05337 q 0,-0.87417 -0.60811,-1.44427 -0.57011,-0.57011 -1.44427,-0.57011 h -0.45609 v -0.38007 h 11.2501 q 4.37082,0 6.53723,1.74833 2.31843,1.78633 2.31843,4.90291 0,1.97637 -0.91217,3.57267 z m 31.73588,0 q -1.90035,3.30662 -5.96711,3.30662 -2.01438,0 -3.99075,-1.33025 v -0.30406 q 3.80071,0 4.86491,-3.87672 0.22804,-0.87417 0.22804,-1.40626 0,-2.62249 -1.25423,-3.87673 -1.25423,-1.25423 -3.34462,-1.25423 h -1.71032 v 18.92753 q 0.038,1.21623 1.02619,1.74833 0.45608,0.26605 1.02619,0.26605 h 0.45608 v 0.38007 h -10.48995 v -0.38007 h 0.45608 q 0.83616,0 1.40626,-0.57011 0.60812,-0.5701 0.60812,-1.40626 v -18.05337 q 0,-0.87417 -0.60812,-1.44427 -0.5701,-0.57011 -1.44427,-0.57011 h -0.45608 v -0.38007 h 11.2501 q 4.37082,0 6.53722,1.74833 2.31843,1.78633 2.31843,4.90291 0,1.97637 -0.91217,3.57267 z m 3.61065,1.17822 q 0,-5.47302 3.64868,-8.66562 3.68669,-3.2306 9.76782,-3.2306 6.11914,0 9.80583,3.2306 3.68669,3.1926 3.68669,8.66562 0,5.47302 -3.68669,8.70363 -3.68669,3.19259 -9.76782,3.19259 -6.08114,0 -9.76783,-3.19259 -3.68668,-3.23061 -3.68668,-8.70363 z m 5.81508,0 q 0,4.78889 2.05239,7.60142 2.09039,2.77452 5.54903,2.77452 3.49665,0 5.54904,-2.77452 2.09039,-2.81253 2.09039,-7.60142 0,-4.78889 -2.09039,-7.56341 -2.05239,-2.81253 -5.54904,-2.81253 -3.45864,0 -5.54903,2.81253 -2.05239,2.77452 -2.05239,7.56341 z m 23.22238,11.40213 v -0.38007 h 0.45608 q 0.87417,0 1.44427,-0.57011 0.60812,-0.5701 0.60812,-1.40626 v -18.05337 q 0,-0.83616 -0.60812,-1.40627 -0.60811,-0.60811 -1.44427,-0.60811 h -0.45608 v -0.38007 h 10.56597 v 0.38007 h -0.45608 q -0.87417,0 -1.48228,0.57011 -0.60811,0.5701 -0.60811,1.44427 v 18.88953 h 4.56085 q 2.35644,-0.038 3.99074,-1.44427 1.63431,-1.44427 2.39445,-4.02876 h 0.41808 l -1.48228,6.99331 z m 20.48582,-0.38007 h 0.45609 q 0.91217,0 1.55829,-0.57011 0.64612,-0.60811 0.64612,-1.44427 v -18.01536 q 0,-0.83616 -0.64612,-1.40627 -0.64612,-0.60811 -1.55829,-0.60811 h -0.45609 v -0.38007 h 10.79402 v 0.38007 h -0.45609 q -0.87416,0 -1.52028,0.57011 -0.64612,0.5701 -0.68413,1.40626 v 18.05337 q 0.038,0.87417 0.68413,1.44427 0.64612,0.57011 1.52028,0.57011 h 0.45609 v 0.38007 h -10.79402 z m 26.71894,0.87416 q -6.3852,-0.038 -10.03388,-3.15459 -3.64868,-3.15459 -3.64868,-8.74163 0,-5.58704 3.61067,-8.74163 3.64869,-3.15459 10.07189,-3.15459 5.01693,0 8.55159,1.74832 v 6.04313 h -0.26605 q -0.95017,-3.38263 -2.92654,-4.8269 -1.97637,-1.44427 -4.97893,-1.44427 -4.02876,0 -6.15715,2.77452 -2.1284,2.73651 -2.1284,7.52541 0,4.75088 2.09039,7.56341 2.1664,2.88854 5.8911,2.88854 2.6985,0 4.44683,-0.83616 1.74833,-0.83615 2.77452,-2.6605 1.02619,-1.86234 1.52028,-5.01693 h 0.26605 l 0.45609,5.73907 q -1.17822,1.93836 -3.61068,3.11658 -2.39444,1.17822 -5.9291,1.17822 z m 36.75286,-22.91828 h -0.49409 q -0.98818,0 -1.90035,0.5321 -0.87417,0.5321 -1.44427,1.33025 l -6.76527,10.41394 v 7.75345 q 0.038,0.83616 0.64612,1.44427 0.60812,0.57011 1.52029,0.57011 h 0.41808 v 0.38007 h -10.64199 v -0.38007 h 0.45608 q 0.87417,0 1.48228,-0.57011 0.60811,-0.60811 0.64612,-1.44427 v -7.75345 l -6.72726,-10.41394 q -0.53209,-0.83616 -1.44427,-1.33025 -0.87416,-0.5321 -1.90035,-0.5321 h -0.45609 v -0.38007 h 11.55416 v 0.38007 h -0.41808 q -0.72213,0 -1.06419,0.49409 -0.30406,0.45609 -0.30406,0.79815 0,0.30406 0.15203,0.57011 l 5.05494,8.74163 5.13096,-8.74163 q 0.11402,-0.26605 0.11402,-0.57011 0,-0.34206 -0.34206,-0.79815 -0.30406,-0.49409 -1.02619,-0.49409 h -0.38008 v -0.38007 h 8.13352 z m 9.46378,22.42419 v -0.38007 h 0.45609 q 0.87416,0 1.44427,-0.57011 0.60811,-0.5701 0.60811,-1.40626 v -18.05337 q 0,-0.83616 -0.60811,-1.40627 -0.60812,-0.60811 -1.44427,-0.60811 h -0.45609 v -0.38007 h 10.56597 v 0.38007 h -0.45608 q -0.87416,0 -1.48228,0.57011 -0.60811,0.5701 -0.60811,1.44427 v 18.88953 h 4.56085 q 2.35644,-0.038 3.99075,-1.44427 1.6343,-1.44427 2.39444,-4.02876 h 0.41808 l -1.48228,6.99331 z m 45.53248,-0.38007 h 0.30406 v 0.38007 h -11.17409 v -0.38007 h 0.30406 q 0.76014,0 1.1022,-0.45609 0.34207,-0.45608 0.34207,-0.83615 0,-0.38007 -0.15203,-0.79815 l -1.48228,-3.49665 h -8.0575 l -1.52029,3.53466 q -0.15203,0.38007 -0.15203,0.79814 0,0.38008 0.34207,0.83616 0.38007,0.41808 1.14021,0.41808 h 0.30406 v 0.38007 h -7.60142 v -0.38007 h 0.30405 q 0.79815,0 1.5963,-0.49409 0.79815,-0.4941 1.29224,-1.48228 l 7.86747,-16.87515 q 1.67232,-3.76271 1.74833,-4.63687 h 0.34206 l 10.18591,21.35999 q 0.49409,1.10221 1.29224,1.63431 0.83615,0.49409 1.67231,0.49409 z M 722.66751,566.425 h 6.76526 l -3.34462,-7.94349 z m 35.49862,-15.35487 h 10.67999 v 0.38007 H 768.2 q -0.87416,0 -1.48227,0.5321 -0.57011,0.5321 -0.60812,1.36826 v 16.6091 q 0,2.35644 0.30406,3.87672 l 0.076,0.5321 h -0.34206 l -17.44526,-15.39287 v 12.58035 q 0.038,0.83615 0.60811,1.40626 0.60812,0.5321 1.48228,0.5321 h 0.64612 v 0.38007 h -10.64199 v -0.38007 h 0.60812 q 0.87416,0 1.48227,-0.5321 0.60812,-0.57011 0.60812,-1.40626 v -16.72313 q 0,-2.28042 -0.30406,-3.7627 l -0.076,-0.5321 0.34206,0.038 17.40725,15.31686 v -12.50434 q 0,-0.83615 -0.60811,-1.36825 -0.57011,-0.57011 -1.44427,-0.57011 h -0.64612 z m 15.81094,20.10576 q -3.38263,-3.1926 -3.38263,-8.74164 0,-5.54903 3.38263,-8.70362 3.42064,-3.15459 9.38776,-3.15459 2.6605,0 5.24498,0.49409 2.58448,0.45609 4.18078,1.25423 v 6.04313 h -0.30406 q -1.67231,-6.27117 -7.98149,-6.27117 -3.95274,0 -6.04313,2.77452 -2.05238,2.73651 -2.05238,7.67743 0,4.90292 1.86235,7.60142 1.90035,2.69851 5.359,2.69851 1.90035,0 3.42064,-0.87417 1.52028,-0.91217 2.01437,-2.58448 l 0.038,-4.56085 q 0,-0.72213 -0.45608,-1.10221 -0.41808,-0.41807 -1.21623,-0.41807 h -0.5321 v -0.30406 h 9.76782 v 0.30406 h -0.45608 q -1.67231,0 -1.67231,1.52028 v 5.09295 q -1.33025,1.71032 -4.48484,3.07858 -3.15459,1.36825 -6.91729,1.36825 -5.73908,-0.038 -9.15972,-3.19259 z m 49.10514,-19.72569 h -0.5321 q -0.72213,0 -1.21622,0.45609 -0.4941,0.41807 -0.5321,1.1022 v 12.58035 q 0,4.10477 -2.50847,6.46121 -2.50847,2.31843 -7.4874,2.31843 -4.94092,0 -7.71544,-2.28042 -2.73651,-2.28043 -2.73651,-6.4232 V 553.0465 q 0,-0.68413 -0.5321,-1.14021 -0.49409,-0.45609 -1.21623,-0.45609 h -0.5321 v -0.38007 h 9.99587 v 0.38007 h -0.5321 q -0.72214,0 -1.21623,0.45609 -0.49409,0.45608 -0.49409,1.14021 v 12.35231 q 0,3.49665 1.5963,5.47302 1.6343,1.97637 4.56085,1.97637 2.92655,0 4.59886,-1.86235 1.71032,-1.86235 1.71032,-5.16897 V 553.0465 q -0.038,-0.72214 -0.5321,-1.14021 -0.49409,-0.45609 -1.21623,-0.45609 h -0.49409 v -0.38007 h 7.03131 z m 25.04673,22.04412 h 0.30405 v 0.38007 h -11.17408 v -0.38007 h 0.30405 q 0.76015,0 1.10221,-0.45609 0.34206,-0.45608 0.34206,-0.83615 0,-0.38007 -0.15202,-0.79815 l -1.48228,-3.49665 h -8.05751 l -1.52028,3.53466 q -0.15203,0.38007 -0.15203,0.79814 0,0.38008 0.34206,0.83616 0.38008,0.41808 1.14022,0.41808 h 0.30405 v 0.38007 h -7.60142 v -0.38007 h 0.30406 q 0.79815,0 1.5963,-0.49409 0.79815,-0.4941 1.29224,-1.48228 l 7.86747,-16.87515 q 1.67231,-3.76271 1.74833,-4.63687 h 0.34206 l 10.1859,21.35999 q 0.4941,1.10221 1.29225,1.63431 0.83615,0.49409 1.67231,0.49409 z m -18.1674,-7.06932 h 6.76527 l -3.34463,-7.94349 z m 21.43601,4.75089 q -3.38264,-3.1926 -3.38264,-8.74164 0,-5.54903 3.38264,-8.70362 3.42064,-3.15459 9.38775,-3.15459 2.6605,0 5.24498,0.49409 2.58448,0.45609 4.18078,1.25423 v 6.04313 H 869.907 q -1.67231,-6.27117 -7.98149,-6.27117 -3.95274,0 -6.04313,2.77452 -2.05238,2.73651 -2.05238,7.67743 0,4.90292 1.86235,7.60142 1.90035,2.69851 5.359,2.69851 1.90035,0 3.42064,-0.87417 1.52028,-0.91217 2.01437,-2.58448 l 0.038,-4.56085 q 0,-0.72213 -0.45608,-1.10221 -0.41808,-0.41807 -1.21623,-0.41807 h -0.5321 v -0.30406 h 9.76782 v 0.30406 h -0.45608 q -1.67231,0 -1.67231,1.52028 v 5.09295 q -1.33025,1.71032 -4.48484,3.07858 -3.15459,1.36825 -6.91729,1.36825 -5.73907,-0.038 -9.15971,-3.19259 z m 41.57977,2.6985 h -17.90134 v -0.38007 h 0.45609 q 0.87416,0 1.44426,-0.57011 0.60812,-0.5701 0.64613,-1.40626 v -18.09138 q -0.038,-0.83616 -0.64613,-1.40626 -0.5701,-0.57011 -1.44426,-0.57011 h -0.45609 v -0.38007 h 13.3785 q 1.02619,0 2.24242,-0.19004 1.21622,-0.19003 1.71032,-0.38007 v 6.04313 h -0.38007 v -0.34206 q 0,-1.67231 -0.91217,-2.62249 -0.91217,-0.95018 -2.54648,-0.98819 h -5.47302 v 9.23573 h 4.33281 q 1.29224,-0.038 2.09039,-0.87416 0.79815,-0.83616 0.79815,-2.1284 v -0.26605 h 0.38007 v 8.0575 h -0.38007 v -0.26605 q 0,-1.78633 -1.33025,-2.58448 -0.68413,-0.41808 -1.52029,-0.41808 h -4.37081 v 9.00769 h 4.56085 q 2.35644,-0.038 3.99075,-1.44427 1.67231,-1.44427 2.43245,-4.02876 h 0.34206 z"
       id="path8"
       aria-label="seccomp policy language " /><path
       id="path9"
       style="baseline-shift:baseline;display:inline;overflow:visible;vector-effect:none;fill:#ffffff;fill-rule:evenodd;stroke-width:0.647397;stroke-linecap:square;stroke-linejoin:round;stroke-miterlimit:8.2;paint-order:markers stroke fill;enable-background:accumulate;stop-color:#000000"
       d="m 174.40235,343.93164 c -54.53538,4.3e-4 -80.475893,74.68313 -35.53907,103.93359 14.24947,11.48878 39.11711,18.45906 65.85743,18.45899 66.60083,-1e-5 96.38236,-37.70166 64.53125,-62.78125 -18.09124,-14.24505 -49.76828,-12.86425 -71.46289,-17.48242 -22.82645,-4.85912 -20.0287,-25.43839 -12.2168,-40.97071 -3.67162,-0.76986 -7.41535,-1.1583 -11.16992,-1.1582 z m 109.97656,93.47656 c -1.61607,3.63104 -3.96645,7.08857 -6.93555,10.25196 -11.28569,12.0242 -31.79739,20.25813 -58.72656,22.52539 2.95779,-0.2614 6.21642,-0.23767 9.01758,-0.63867 -7.0724,1.01294 -14.62044,1.61591 -22.74414,1.6289 -0.089,1.3e-4 -0.18045,0 -0.26953,0 -7.06689,2e-5 -13.98471,-0.48764 -20.66407,-1.375 -2.22848,-0.296 -4.22941,-0.8856 -6.39453,-1.27734 -4.46324,-0.80731 -8.95189,-1.57495 -13.08008,-2.7793 h -0.002 c -0.0714,-0.0208 -0.13768,-0.0474 -0.20898,-0.0684 -0.0869,-0.029 -0.17411,-0.0574 -0.26368,-0.084 -11.00436,-3.26299 -20.68862,-7.87207 -28.10351,-13.79883 -5.46272,-3.58858 -9.96073,-7.82125 -13.55859,-12.5 a 104.13198,60.622314 0 0 0 -21.85743,37.16015 104.13198,60.622314 0 0 0 104.13282,60.6211 104.13198,60.622314 0 0 0 104.13281,-60.6211 104.13198,60.622314 0 0 0 -24.47461,-39.04492 z m -148.375,14.38477 c 0.0703,0.0462 0.14034,0.0927 0.21094,0.13867 l -0.39649,-0.28906 c 0.0622,0.0501 0.12306,0.10044 0.18555,0.15039 z m 174.88281,39.64648 c -4.86859,12.68648 -15.73158,23.71107 -30.09375,32.07227 -19.77147,11.51031 -46.55379,18.41406 -76.07226,18.41406 -29.51846,0 -56.30275,-6.90375 -76.07422,-18.41406 -14.36223,-8.36123 -25.22519,-19.38434 -30.093753,-32.07031 a 135.05028,77.023516 0 0 0 -28.882813,47.60547 135.05028,77.023516 0 0 0 135.050786,77.02343 135.05028,77.023516 0 0 0 135.05078,-77.02343 135.05028,77.023516 0 0 0 -28.88477,-47.60743 z" /><path
       id="path10"
       style="font-weight:800;font-size:213.292px;line-height:2.5;font-family:Rawline;-inkscape-font-specification:'Rawline Ultra-Bold';letter-spacing:-3.28824px;word-spacing:-0.0888714px;display:inline;fill:#ffffff;fill-rule:evenodd;stroke-width:11.962;stroke-linecap:square;stroke-linejoin:round;stroke-miterlimit:8.2;paint-order:markers stroke fill"
       d="m 596.81641,373.68164 v 155.69922 h 34.05664 V 496.7832 l 11.97656,-12.18554 29.26563,44.7832 h 36.24218 l -43.74023,-63.73828 40.30469,-48.21875 h -36.03516 l -38.01367,46.24023 v -89.98242 z m 237.64844,0 v 127.78711 c 0,9.58147 2.63731,16.94218 7.91406,22.08008 5.27675,5.13789 12.77575,7.70703 22.49609,7.70703 4.79074,0 9.9631,-0.59116 15.51758,-1.77148 5.62391,-1.1109 10.55377,-2.63797 14.78906,-4.58204 l -4.47851,-25.61914 c -4.44359,2.15236 -8.57388,3.22852 -12.39258,3.22852 -6.52651,0 -9.79102,-4.34066 -9.79102,-13.01953 V 373.68164 Z m -472.06641,4.26953 v 151.42969 h 34.99414 v -59.67578 h 55.92578 v -28.43164 h -55.92578 v -32.59766 h 67.79883 v -30.72461 z m 162.51367,37.28516 c -9.30375,0 -17.80878,1.59719 -25.51562,4.79101 -7.63741,3.1244 -13.95605,7.39298 -18.95508,12.8086 -4.99903,5.41562 -8.88682,11.73426 -11.66406,18.95508 -2.70781,7.15139 -4.0625,14.7546 -4.0625,22.80859 0,7.56798 1.38877,14.78844 4.16601,21.66211 2.77724,6.87367 6.66503,12.91377 11.66406,18.12109 5.06847,5.20733 11.42119,9.37366 19.0586,12.49805 7.70684,3.05496 16.1437,4.58203 25.30859,4.58203 12.56701,0 23.53697,-2.70743 32.91016,-8.12305 9.37319,-5.41562 16.31511,-12.63608 20.82812,-21.66211 l -29.05664,-8.12304 c -1.59691,3.95756 -4.65105,7.18602 -9.16406,9.68554 -4.51302,2.49952 -9.33867,3.74805 -14.47656,3.74805 -6.52652,0 -12.21991,-2.0481 -17.08008,-6.14453 -4.79074,-4.09643 -7.43,-9.71971 -7.91602,-16.87109 h 82.79688 c 0.55545,-3.74928 0.83398,-7.39457 0.83398,-10.93555 0,-7.70684 -1.35468,-14.99742 -4.0625,-21.87109 -2.63837,-6.9431 -6.42196,-13.08741 -11.35156,-18.4336 -4.9296,-5.34618 -11.21219,-9.58068 -18.84961,-12.70508 -7.6374,-3.19382 -16.10835,-4.79101 -25.41211,-4.79101 z m 235.35547,0 c -17.49661,0 -33.70905,4.85974 -48.63672,14.58008 l 10.31055,21.66211 c 6.31822,-4.23529 12.18595,-7.32351 17.60156,-9.26758 5.48506,-2.0135 11.24662,-3.02149 17.28711,-3.02149 14.99709,0 22.4961,6.31864 22.4961,18.95508 v 4.89453 c -6.94311,-2.98553 -15.27381,-4.47851 -24.99415,-4.47851 -14.23335,0 -25.82856,3.47291 -34.78515,10.41601 -8.9566,6.87367 -13.43555,15.82961 -13.43555,26.86914 0,10.13692 3.71542,18.60787 11.14453,25.41211 7.42912,6.80424 16.73177,10.20508 27.91016,10.20508 7.56798,0 14.78844,-1.66536 21.66211,-4.99805 6.9431,-3.40211 12.88094,-8.26185 17.81055,-14.58007 l 0.62304,4.89453 c 1.80521,9.51204 8.78317,14.26758 20.9336,14.26758 4.37414,0 9.1998,-0.55513 14.47656,-1.66602 v -28.32813 c -2.70782,-0.20829 -4.61567,-1.00591 -5.72656,-2.39453 -1.04147,-1.45804 -1.5625,-3.88889 -1.5625,-7.29101 v -29.16016 c 0,-15.13595 -4.65328,-26.73116 -13.95704,-34.78515 -9.23432,-8.12343 -22.28647,-12.18555 -39.1582,-12.18555 z m -235.77344,24.57812 c 6.52652,0 12.01345,2.11823 16.45704,6.35352 4.51301,4.23529 7.11623,9.85857 7.81054,16.87109 H 500.125 c 0.69431,-7.01252 3.26345,-12.6358 7.70703,-16.87109 4.51302,-4.23529 10.06617,-6.35352 16.66211,-6.35352 z m 235.56446,37.91016 c 5.90163,0 12.32447,1.21445 19.26758,3.64453 v 9.99805 c 0,2.9161 -1.80561,5.83194 -5.41602,8.74804 -2.36065,2.08294 -5.24242,3.75025 -8.64453,5 -3.3327,1.24976 -6.69945,1.87305 -10.10156,1.87305 -5.06847,0 -9.16467,-1.35274 -12.28907,-4.06055 -3.05496,-2.77724 -4.58203,-6.1099 -4.58203,-9.99804 0,-4.44358 2.04811,-8.08888 6.14453,-10.93555 4.09643,-2.84667 9.30288,-4.26953 15.6211,-4.26953 z"
       inkscape:label="txt"
       sodipodi:nodetypes="ccccccccccccccssscccsscccccccccccccscscssccssccsscccscscsscccsscscssscccscccsscssccccsscsccscsss" /></g></svg>
